<svg width="40" height="43" viewBox="0 0 40 43" fill="none" xmlns="http://www.w3.org/2000/svg">
<g filter="url(#filter0_d_57_744)">
<circle cx="19.8431" cy="19.8431" r="19.8431" fill="#4E0202"/>
<circle cx="19.8431" cy="19.8431" r="18.3431" stroke="white" stroke-width="3"/>
</g>
<mask id="path-3-inside-1_57_744" fill="white">
<path d="M11.0331 11.8336C12.2886 10.5253 14.3672 10.4827 15.6757 11.7379L19.8661 15.7584L24.0565 11.7379C25.3649 10.4825 27.4435 10.5255 28.6991 11.8336C29.9547 13.1422 29.9119 15.2216 28.6034 16.4772L24.6083 20.3092L28.8007 24.3317C30.1092 25.5873 30.1519 27.6657 28.8964 28.9743C27.6408 30.2827 25.5623 30.3264 24.2538 29.0709L19.8661 24.86L15.4784 29.0709C14.1698 30.3261 12.0913 30.2826 10.8358 28.9743C9.58057 27.6658 9.6232 25.5872 10.9315 24.3317L15.1229 20.3092L11.1288 16.4772C9.82026 15.2216 9.77751 13.1422 11.0331 11.8336Z"/>
</mask>
<path d="M11.0331 11.8336C12.2886 10.5253 14.3672 10.4827 15.6757 11.7379L19.8661 15.7584L24.0565 11.7379C25.3649 10.4825 27.4435 10.5255 28.6991 11.8336C29.9547 13.1422 29.9119 15.2216 28.6034 16.4772L24.6083 20.3092L28.8007 24.3317C30.1092 25.5873 30.1519 27.6657 28.8964 28.9743C27.6408 30.2827 25.5623 30.3264 24.2538 29.0709L19.8661 24.86L15.4784 29.0709C14.1698 30.3261 12.0913 30.2826 10.8358 28.9743C9.58057 27.6658 9.6232 25.5872 10.9315 24.3317L15.1229 20.3092L11.1288 16.4772C9.82026 15.2216 9.77751 13.1422 11.0331 11.8336Z" fill="white"/>
<path d="M11.0331 11.8336L10.3116 11.1412L10.3115 11.1413L11.0331 11.8336ZM15.6757 11.7379L16.368 11.0163L16.3679 11.0163L15.6757 11.7379ZM19.8661 15.7584L19.1738 16.48L19.8661 17.1443L20.5584 16.48L19.8661 15.7584ZM24.0565 11.7379L24.7488 12.4595L24.7489 12.4595L24.0565 11.7379ZM28.6991 11.8336L29.4207 11.1413L29.4205 11.1412L28.6991 11.8336ZM28.6034 16.4772L29.2956 17.1989L29.2958 17.1987L28.6034 16.4772ZM24.6083 20.3092L23.9161 19.5875L23.1638 20.3091L23.9159 21.0308L24.6083 20.3092ZM28.8007 24.3317L29.493 23.6101L29.493 23.6101L28.8007 24.3317ZM28.8964 28.9743L29.6179 29.6666H29.6179L28.8964 28.9743ZM24.2538 29.0709L23.5614 29.7924L23.5615 29.7925L24.2538 29.0709ZM19.8661 24.86L20.5585 24.1385L19.8661 23.474L19.1737 24.1385L19.8661 24.86ZM15.4784 29.0709L16.1706 29.7926L16.1708 29.7924L15.4784 29.0709ZM10.8358 28.9743L10.1142 29.6665L10.1143 29.6666L10.8358 28.9743ZM10.9315 24.3317L11.6239 25.0532L11.6239 25.0532L10.9315 24.3317ZM15.1229 20.3092L15.8153 21.0307L16.5673 20.3091L15.8152 19.5876L15.1229 20.3092ZM11.1288 16.4772L10.4364 17.1987L10.4365 17.1988L11.1288 16.4772ZM11.0331 11.8336L11.7546 12.526C12.6276 11.6163 14.0732 11.5864 14.9834 12.4596L15.6757 11.7379L16.3679 11.0163C14.6611 9.37887 11.9495 9.43433 10.3116 11.1412L11.0331 11.8336ZM15.6757 11.7379L14.9833 12.4595L19.1738 16.48L19.8661 15.7584L20.5584 15.0369L16.368 11.0163L15.6757 11.7379ZM19.8661 15.7584L20.5584 16.48L24.7488 12.4595L24.0565 11.7379L23.3642 11.0163L19.1738 15.0369L19.8661 15.7584ZM24.0565 11.7379L24.7489 12.4595C25.6587 11.5865 27.1044 11.6163 27.9777 12.5261L28.6991 11.8336L29.4205 11.1412C27.7826 9.43472 25.0711 9.3785 23.3642 11.0164L24.0565 11.7379ZM28.6991 11.8336L27.9775 12.526C28.8508 13.4361 28.821 14.8825 27.911 15.7556L28.6034 16.4772L29.2958 17.1987C31.0029 15.5607 31.0585 12.8482 29.4207 11.1413L28.6991 11.8336ZM28.6034 16.4772L27.9112 15.7555L23.9161 19.5875L24.6083 20.3092L25.3005 21.0309L29.2956 17.1989L28.6034 16.4772ZM24.6083 20.3092L23.9159 21.0308L28.1083 25.0533L28.8007 24.3317L29.493 23.6101L25.3006 19.5876L24.6083 20.3092ZM28.8007 24.3317L28.1083 25.0532C29.0183 25.9264 29.0481 27.3718 28.1748 28.2819L28.8964 28.9743L29.6179 29.6666C31.2558 27.9597 31.2001 25.2481 29.493 23.6101L28.8007 24.3317ZM28.8964 28.9743L28.1748 28.2819C27.3014 29.1922 25.8559 29.2222 24.9461 28.3493L24.2538 29.0709L23.5615 29.7925C25.2688 31.4306 27.9803 31.3733 29.6179 29.6666L28.8964 28.9743ZM24.2538 29.0709L24.9462 28.3494L20.5585 24.1385L19.8661 24.86L19.1737 25.5815L23.5614 29.7924L24.2538 29.0709ZM19.8661 24.86L19.1737 24.1385L14.786 28.3494L15.4784 29.0709L16.1708 29.7924L20.5585 25.5815L19.8661 24.86ZM15.4784 29.0709L14.7862 28.3493C13.8763 29.222 12.4306 29.192 11.5574 28.2819L10.8358 28.9743L10.1143 29.6666C11.7519 31.3733 14.4634 31.4302 16.1706 29.7926L15.4784 29.0709ZM10.8358 28.9743L11.5575 28.282C10.6844 27.3718 10.7142 25.9262 11.6239 25.0532L10.9315 24.3317L10.2391 23.6102C8.53223 25.2481 8.47678 27.9597 10.1142 29.6665L10.8358 28.9743ZM10.9315 24.3317L11.6239 25.0532L15.8153 21.0307L15.1229 20.3092L14.4305 19.5877L10.2391 23.6102L10.9315 24.3317ZM15.1229 20.3092L15.8152 19.5876L11.8211 15.7556L11.1288 16.4772L10.4365 17.1988L14.4306 21.0308L15.1229 20.3092ZM11.1288 16.4772L11.8211 15.7556C10.9112 14.8825 10.8814 13.4361 11.7546 12.526L11.0331 11.8336L10.3115 11.1413C8.67365 12.8482 8.72932 15.5607 10.4364 17.1987L11.1288 16.4772Z" fill="white" mask="url(#path-3-inside-1_57_744)"/>
<defs>
<filter id="filter0_d_57_744" x="0" y="0" width="39.6863" height="42.686" filterUnits="userSpaceOnUse" color-interpolation-filters="sRGB">
<feFlood flood-opacity="0" result="BackgroundImageFix"/>
<feColorMatrix in="SourceAlpha" type="matrix" values="0 0 0 0 0 0 0 0 0 0 0 0 0 0 0 0 0 0 127 0" result="hardAlpha"/>
<feOffset dy="3"/>
<feComposite in2="hardAlpha" operator="out"/>
<feColorMatrix type="matrix" values="0 0 0 0 0.305882 0 0 0 0 0.00784314 0 0 0 0 0.00784314 0 0 0 1 0"/>
<feBlend mode="normal" in2="BackgroundImageFix" result="effect1_dropShadow_57_744"/>
<feBlend mode="normal" in="SourceGraphic" in2="effect1_dropShadow_57_744" result="shape"/>
</filter>
</defs>
</svg>
