<svg width="186" height="100" viewBox="0 0 186 100" fill="none" xmlns="http://www.w3.org/2000/svg">
<g filter="url(#filter0_i_57_240)">
<path d="M78.9136 37.4C75.9003 37.4 73.2336 37.0533 70.9136 36.36C68.6203 35.64 66.8336 34.4667 65.5536 32.84C64.2736 31.1867 63.6336 28.9733 63.6336 26.2C63.6336 25.16 63.7536 24.12 63.9936 23.08C64.2336 22.04 64.5669 21.0267 64.9936 20.04C65.2069 19.56 65.4469 19.2667 65.7136 19.16C65.9803 19.0533 66.2869 19.04 66.6336 19.12L70.3936 20.12C70.9536 20.2533 71.3003 20.4133 71.4336 20.6C71.5936 20.7867 71.6203 21.0667 71.5136 21.44C71.3269 22.0267 71.1803 22.56 71.0736 23.04C70.9669 23.4933 70.9136 23.92 70.9136 24.32C70.9136 25.44 71.2869 26.28 72.0336 26.84C72.7803 27.4 73.8203 27.7733 75.1536 27.96C76.5136 28.12 78.1136 28.2 79.9536 28.2H82.9536C84.4736 28.2 85.6869 27.9733 86.5936 27.52C87.5269 27.0667 87.9936 26.1467 87.9936 24.76V7.92C87.9936 7.65333 88.0736 7.44 88.2336 7.28C88.4203 7.09333 88.6469 7 88.9136 7H94.6736C94.9669 7 95.1936 7.09333 95.3536 7.28C95.5136 7.44 95.5936 7.65333 95.5936 7.92V24.28C95.5936 25.24 95.6736 26.0133 95.8336 26.6C95.9936 27.16 96.3136 27.5733 96.7936 27.84C97.2736 28.08 97.9936 28.2 98.9536 28.2C99.3003 28.2 99.5269 28.3067 99.6336 28.52C99.7403 28.7067 99.7936 28.9333 99.7936 29.2V36.2C99.7936 37 99.3936 37.4 98.5936 37.4C97.8203 37.4 96.9669 37.32 96.0336 37.16C95.1003 37.0267 94.2069 36.8133 93.3536 36.52C92.5269 36.2267 91.8469 35.84 91.3136 35.36C90.4069 36.0267 89.3403 36.5333 88.1136 36.88C86.9136 37.2267 85.2469 37.4 83.1136 37.4H78.9136ZM75.4736 24.2C74.8336 24.2 74.5136 23.92 74.5136 23.36V21.24C74.5136 20.5467 74.8336 20.2 75.4736 20.2H80.1536C80.7669 20.2 81.0736 20.0133 81.0736 19.64C81.0736 19.5067 81.0336 19.3867 80.9536 19.28C80.8736 19.1733 80.6469 19.0133 80.2736 18.8L78.5136 17.76C77.8469 17.36 77.3269 16.92 76.9536 16.44C76.6069 15.96 76.4336 15.3867 76.4336 14.72C76.4336 13.8667 76.6336 13.2 77.0336 12.72C77.4603 12.2133 78.0469 11.76 78.7936 11.36L82.8336 9.28C83.2869 9.04 83.6203 8.96 83.8336 9.04C84.0736 9.12 84.2869 9.32 84.4736 9.64L85.2736 11.16C85.5936 11.7733 85.4069 12.24 84.7136 12.56L81.2336 14.12C80.7803 14.3333 80.5536 14.5333 80.5536 14.72C80.5536 14.8267 80.5936 14.9333 80.6736 15.04C80.7803 15.12 80.9136 15.2 81.0736 15.28L82.7936 16.2C83.9669 16.8133 84.6736 17.4667 84.9136 18.16C85.1803 18.8267 85.3136 19.5067 85.3136 20.2C85.3136 21.5867 84.9003 22.6 84.0736 23.24C83.2469 23.88 82.0469 24.2 80.4736 24.2H75.4736ZM98.6008 37.4C98.2008 37.4 98.0008 37.2 98.0008 36.8V29.4C98.0008 28.6 98.4008 28.2 99.2008 28.2H99.2808C100.214 28.2 100.827 27.96 101.121 27.48C101.441 27 101.601 26.2133 101.601 25.12V21.52C101.601 20.64 102.001 20.2 102.801 20.2H107.601C108.401 20.2 108.801 20.64 108.801 21.52V25.12C108.801 26.2667 109.027 27.0667 109.481 27.52C109.934 27.9733 110.734 28.2 111.881 28.2H112.001C112.401 28.2 112.601 28.4 112.601 28.8V36.2C112.601 37 112.201 37.4 111.401 37.4C109.961 37.4 108.627 37.1333 107.401 36.6C106.174 36.04 105.201 35.1067 104.481 33.8C103.841 35.2133 103.001 36.1733 101.961 36.68C100.921 37.16 99.8008 37.4 98.6008 37.4ZM106.001 16.88C105.787 17.0933 105.507 17.2 105.161 17.2C104.841 17.1733 104.574 17.0533 104.361 16.84L101.761 14.24C101.521 14 101.401 13.7333 101.401 13.44C101.401 13.12 101.521 12.84 101.761 12.6L104.361 10C104.574 9.78667 104.841 9.68 105.161 9.68C105.481 9.65333 105.747 9.76 105.961 10L108.481 12.6C109.067 13.2133 109.107 13.7733 108.601 14.28L106.001 16.88ZM111.413 37.4C111.227 37.4 111.08 37.3467 110.973 37.24C110.867 37.1333 110.813 36.9867 110.813 36.8V29.4C110.813 29.0267 110.92 28.7333 111.133 28.52C111.347 28.3067 111.64 28.2 112.013 28.2H112.093C112.813 28.2 113.36 28.0133 113.733 27.64C114.133 27.2667 114.333 26.64 114.333 25.76C114.333 25.5467 114.307 25.3067 114.253 25.04C114.227 24.7467 114.187 24.4533 114.133 24.16L113.493 20.96C113.387 20.3467 113.44 19.9067 113.653 19.64C113.867 19.3733 114.213 19.1867 114.693 19.08L119.093 18.16C120.187 17.92 120.84 18.36 121.053 19.48L121.973 24.2C122.107 24.8667 122.2 25.52 122.253 26.16C122.333 26.7733 122.373 27.3867 122.373 28C122.373 30.8 121.64 33.0667 120.173 34.8C118.733 36.5333 116.573 37.4 113.693 37.4H111.413ZM116.453 46.2C116.24 46.3867 115.973 46.4667 115.653 46.44C115.36 46.44 115.107 46.3467 114.893 46.16L112.453 43.72C112.267 43.5067 112.173 43.2533 112.173 42.96C112.173 42.6667 112.267 42.4 112.453 42.16L114.893 39.72C115.107 39.5067 115.36 39.4 115.653 39.4C115.947 39.4 116.2 39.5067 116.413 39.72L118.813 42.16C119.053 42.4 119.173 42.6667 119.173 42.96C119.2 43.2533 119.107 43.52 118.893 43.76L116.453 46.2Z" fill="#D9D9D9"/>
</g>
<g filter="url(#filter1_i_57_240)">
<path d="M35.441 84.6C32.041 84.6 29.301 83.82 27.221 82.26C25.141 80.7 23.661 78.4 22.781 75.36C21.821 76.88 20.521 78.06 18.881 78.9C17.281 79.74 15.281 80.16 12.881 80.16C9.16102 80.16 6.38102 79.22 4.54102 77.34C2.74102 75.42 1.84102 72.84 1.84102 69.6C1.84102 67.68 2.26102 65.82 3.10102 64.02C3.94102 62.18 5.36102 60.46 7.36102 58.86C9.36102 57.26 12.081 55.86 15.521 54.66L21.701 52.5V49.68C21.701 49.16 21.821 48.78 22.061 48.54C22.341 48.26 22.741 48.12 23.261 48.12H31.301C31.701 48.12 32.001 48.26 32.201 48.54C32.401 48.78 32.501 49.1 32.501 49.5V65.4C32.501 67.56 32.801 69 33.401 69.72C34.041 70.44 35.281 70.8 37.121 70.8H37.901C38.181 70.8 38.401 70.88 38.561 71.04C38.721 71.2 38.801 71.42 38.801 71.7V82.8C38.801 84 38.201 84.6 37.001 84.6H35.441ZM16.481 69.3C17.401 69.3 18.261 69.12 19.061 68.76C19.861 68.36 20.501 67.78 20.981 67.02C21.501 66.22 21.761 65.22 21.761 64.02V62.1L17.501 63.3C16.221 63.66 15.201 64.14 14.441 64.74C13.721 65.34 13.361 66.02 13.361 66.78C13.361 67.54 13.641 68.16 14.201 68.64C14.761 69.08 15.521 69.3 16.481 69.3ZM23.501 43.44C23.221 43.72 22.841 43.88 22.361 43.92C21.921 43.92 21.521 43.74 21.161 43.38L17.501 39.72C17.221 39.4 17.061 39.02 17.021 38.58C16.981 38.14 17.141 37.74 17.501 37.38L21.161 33.72C21.521 33.36 21.921 33.2 22.361 33.24C22.801 33.24 23.181 33.4 23.501 33.72L27.161 37.38C27.521 37.74 27.701 38.16 27.701 38.64C27.741 39.08 27.581 39.46 27.221 39.78L23.501 43.44ZM33.041 43.44C32.681 43.8 32.281 43.96 31.841 43.92C31.401 43.88 31.021 43.7 30.701 43.38L26.981 39.72C26.661 39.4 26.501 39.02 26.501 38.58C26.501 38.1 26.661 37.7 26.981 37.38L30.701 33.72C31.021 33.4 31.381 33.24 31.781 33.24C32.221 33.2 32.621 33.36 32.981 33.72L36.641 37.38C37.001 37.74 37.181 38.14 37.181 38.58C37.221 39.02 37.061 39.42 36.701 39.78L33.041 43.44ZM37.0066 84.6C36.4066 84.6 36.1066 84.3 36.1066 83.7V72.6C36.1066 71.4 36.7066 70.8 37.9066 70.8C39.5866 70.8 40.7066 70.4 41.2666 69.6C41.8266 68.8 42.1066 67.46 42.1066 65.58V40.98C42.1066 39.66 42.7066 39 43.9066 39H51.1066C52.3066 39 52.9066 39.66 52.9066 40.98V65.58C52.9066 66.78 53.0266 67.76 53.2666 68.52C53.5466 69.28 54.0666 69.86 54.8266 70.26C55.6266 70.62 56.7866 70.8 58.3066 70.8C58.9066 70.8 59.2066 71.1 59.2066 71.7V82.8C59.2066 84 58.6066 84.6 57.4066 84.6C55.2066 84.6 53.1466 84.2 51.2266 83.4C49.3466 82.56 47.8466 81.16 46.7266 79.2C45.6866 81.32 44.3066 82.76 42.5866 83.52C40.8666 84.24 39.0066 84.6 37.0066 84.6ZM57.3973 84.6C56.7973 84.6 56.4973 84.3 56.4973 83.7V72.6C56.4973 71.4 57.0973 70.8 58.2973 70.8H58.4173C59.8173 70.8 60.7373 70.44 61.1773 69.72C61.6573 69 61.8973 67.82 61.8973 66.18V60.78C61.8973 59.46 62.4973 58.8 63.6973 58.8H70.8973C72.0973 58.8 72.6973 59.46 72.6973 60.78V66.18C72.6973 67.9 73.0373 69.1 73.7173 69.78C74.3973 70.46 75.5973 70.8 77.3173 70.8H77.4973C78.0973 70.8 78.3973 71.1 78.3973 71.7V82.8C78.3973 84 77.7973 84.6 76.5973 84.6C74.4373 84.6 72.4373 84.2 70.5973 83.4C68.7573 82.56 67.2973 81.16 66.2173 79.2C65.2573 81.32 63.9973 82.76 62.4373 83.52C60.8773 84.24 59.1973 84.6 57.3973 84.6ZM61.8973 56.64C61.4973 56.72 61.1973 56.66 60.9973 56.46C60.8373 56.26 60.7573 56.02 60.7573 55.74V53.22C60.7573 52.82 60.8373 52.54 60.9973 52.38C61.1973 52.18 61.4373 52.04 61.7173 51.96L63.0973 51.54C62.8173 51.18 62.5773 50.74 62.3773 50.22C62.2173 49.7 62.1373 49.12 62.1373 48.48C62.1373 46.72 62.6573 45.26 63.6973 44.1C64.7773 42.94 66.3373 42.36 68.3773 42.36C68.9373 42.36 69.4773 42.42 69.9973 42.54C70.5173 42.66 70.9373 42.82 71.2573 43.02C71.7773 43.3 72.0373 43.66 72.0373 44.1V46.56C72.0373 47.08 71.7973 47.26 71.3173 47.1C70.8373 46.86 70.3173 46.7 69.7573 46.62C69.2373 46.5 68.7173 46.44 68.1973 46.44C67.3973 46.44 66.8173 46.6 66.4573 46.92C66.0973 47.2 65.9173 47.56 65.9173 48C65.9173 48.72 66.3773 49.26 67.2973 49.62C68.2173 49.94 69.3173 49.98 70.5973 49.74L72.6373 49.38C73.0773 49.3 73.3773 49.32 73.5373 49.44C73.7373 49.56 73.8373 49.82 73.8373 50.22V52.74C73.8373 53.38 73.5573 53.78 72.9973 53.94L61.8973 56.64ZM94.076 84.6C92.676 84.6 91.156 84.3 89.516 83.7C87.876 83.1 86.536 82.04 85.496 80.52C84.256 82.12 82.796 83.2 81.116 83.76C79.476 84.32 77.976 84.6 76.616 84.6C76.016 84.6 75.716 84.3 75.716 83.7V72.6C75.716 71.4 76.316 70.8 77.516 70.8C79.036 70.8 80.016 70.54 80.456 70.02C80.896 69.46 81.116 68.38 81.116 66.78V62.88C81.116 62.28 81.276 61.8 81.596 61.44C81.916 61.04 82.356 60.84 82.916 60.84H90.176C91.336 60.84 91.916 61.5 91.916 62.82V66.96C91.916 68 92.116 68.9 92.516 69.66C92.956 70.42 93.756 70.8 94.916 70.8C96.196 70.8 97.016 70.44 97.376 69.72C97.736 69 97.916 67.92 97.916 66.48V62.82C97.916 62.22 98.076 61.74 98.396 61.38C98.716 61.02 99.156 60.84 99.716 60.84H106.916C107.476 60.84 107.916 61.02 108.236 61.38C108.556 61.74 108.716 62.22 108.716 62.82V67.08C108.716 68.2 108.956 69.1 109.436 69.78C109.956 70.46 110.756 70.8 111.836 70.8C112.716 70.8 113.496 70.58 114.176 70.14C114.896 69.66 115.256 68.86 115.256 67.74C115.256 67.54 115.236 67.34 115.196 67.14C115.196 66.9 115.156 66.66 115.076 66.42L113.816 60.78C113.656 60.1 113.716 59.64 113.996 59.4C114.276 59.12 114.656 58.92 115.136 58.8L122.576 57C123.136 56.88 123.536 56.94 123.776 57.18C124.056 57.38 124.256 57.76 124.376 58.32L125.396 63.12C125.676 64.36 125.876 65.56 125.996 66.72C126.156 67.84 126.236 68.92 126.236 69.96C126.236 73.32 125.596 76.08 124.316 78.24C123.076 80.4 121.376 82 119.216 83.04C117.056 84.08 114.616 84.6 111.896 84.6C110.216 84.6 108.476 84.3 106.676 83.7C104.876 83.1 103.416 82.04 102.296 80.52C101.616 81.68 100.796 82.56 99.836 83.16C98.876 83.76 97.896 84.14 96.896 84.3C95.896 84.5 94.956 84.6 94.076 84.6ZM133.65 84.6C132.85 84.36 132.45 83.84 132.45 83.04V71.94C132.45 71.1 132.55 70.46 132.75 70.02C132.99 69.58 133.43 69.14 134.07 68.7L146.67 59.7L152.97 63.72L143.67 70.8H151.77C152.69 70.8 153.37 70.72 153.81 70.56C154.29 70.36 154.53 70.12 154.53 69.84C154.53 69.48 154.35 69.12 153.99 68.76C153.63 68.36 153.07 67.92 152.31 67.44L130.71 53.22C130.11 52.82 129.73 52.38 129.57 51.9C129.41 51.42 129.53 50.88 129.93 50.28L133.89 44.22C134.29 43.62 134.67 43.28 135.03 43.2C135.43 43.12 135.87 43.24 136.35 43.56L155.67 57.06C157.95 58.74 159.63 60.36 160.71 61.92C161.83 63.48 162.57 65 162.93 66.48C163.29 67.92 163.47 69.36 163.47 70.8C163.47 73.88 162.77 76.46 161.37 78.54C160.01 80.58 158.07 82.1 155.55 83.1C153.03 84.1 150.03 84.6 146.55 84.6H133.65ZM154.53 60.84L148.53 57.36C149.17 57.12 149.63 56.84 149.91 56.52C150.19 56.2 150.37 55.8 150.45 55.32C150.53 54.8 150.57 54.14 150.57 53.34V40.38C150.57 39.98 150.69 39.66 150.93 39.42C151.21 39.14 151.55 39 151.95 39H159.99C160.43 39 160.77 39.14 161.01 39.42C161.25 39.66 161.37 39.98 161.37 40.38V52.02C161.37 53.94 160.99 55.56 160.23 56.88C159.51 58.16 158.61 59.14 157.53 59.82C156.49 60.5 155.49 60.84 154.53 60.84ZM172.034 84.3C171.634 84.3 171.294 84.18 171.014 83.94C170.774 83.66 170.654 83.32 170.654 82.92V40.38C170.654 39.98 170.774 39.66 171.014 39.42C171.294 39.14 171.634 39 172.034 39H180.074C180.514 39 180.854 39.14 181.094 39.42C181.334 39.66 181.454 39.98 181.454 40.38V82.92C181.454 83.32 181.334 83.66 181.094 83.94C180.854 84.18 180.514 84.3 180.074 84.3H172.034Z" fill="url(#paint0_linear_57_240)"/>
</g>
<defs>
<filter id="filter0_i_57_240" x="63.6335" y="6.08491" width="58.7397" height="40.3951" filterUnits="userSpaceOnUse" color-interpolation-filters="sRGB">
<feFlood flood-opacity="0" result="BackgroundImageFix"/>
<feBlend mode="normal" in="SourceGraphic" in2="BackgroundImageFix" result="shape"/>
<feColorMatrix in="SourceAlpha" type="matrix" values="0 0 0 0 0 0 0 0 0 0 0 0 0 0 0 0 0 0 127 0" result="hardAlpha"/>
<feOffset dy="-4.57547"/>
<feGaussianBlur stdDeviation="0.457547"/>
<feComposite in2="hardAlpha" operator="arithmetic" k2="-1" k3="1"/>
<feColorMatrix type="matrix" values="0 0 0 0 0 0 0 0 0 0 0 0 0 0 0 0 0 0 1 0"/>
<feBlend mode="overlay" in2="shape" result="effect1_innerShadow_57_240"/>
</filter>
<filter id="filter1_i_57_240" x="1.84106" y="32.2651" width="179.613" height="52.335" filterUnits="userSpaceOnUse" color-interpolation-filters="sRGB">
<feFlood flood-opacity="0" result="BackgroundImageFix"/>
<feBlend mode="normal" in="SourceGraphic" in2="BackgroundImageFix" result="shape"/>
<feColorMatrix in="SourceAlpha" type="matrix" values="0 0 0 0 0 0 0 0 0 0 0 0 0 0 0 0 0 0 127 0" result="hardAlpha"/>
<feOffset dy="-5.49057"/>
<feGaussianBlur stdDeviation="0.457547"/>
<feComposite in2="hardAlpha" operator="arithmetic" k2="-1" k3="1"/>
<feColorMatrix type="matrix" values="0 0 0 0 0 0 0 0 0 0 0 0 0 0 0 0 0 0 1 0"/>
<feBlend mode="overlay" in2="shape" result="effect1_innerShadow_57_240"/>
</filter>
<linearGradient id="paint0_linear_57_240" x1="93" y1="26" x2="93" y2="100" gradientUnits="userSpaceOnUse">
<stop stop-color="#F9B85E"/>
<stop offset="1" stop-color="#D49228"/>
</linearGradient>
</defs>
</svg>
