<svg width="225" height="78" viewBox="0 0 225 78" fill="none" xmlns="http://www.w3.org/2000/svg">
<g filter="url(#filter0_i_119_223)">
<path d="M28.5309 33.7729C27.4392 33.7729 26.5113 33.3908 25.7471 32.6267C24.983 31.8625 24.6009 30.9346 24.6009 29.8429C24.6009 28.7513 24.983 27.8233 25.7471 27.0592C26.5113 26.295 27.4392 25.9129 28.5309 25.9129C29.6226 25.9129 30.5505 26.295 31.3146 27.0592C32.0788 27.8233 32.4609 28.7513 32.4609 29.8429C32.4609 30.9346 32.0788 31.8625 31.3146 32.6267C30.5505 33.3908 29.6226 33.7729 28.5309 33.7729ZM37.5371 33.7729C36.4455 33.7729 35.5176 33.3908 34.7534 32.6267C33.9892 31.8625 33.6071 30.9346 33.6071 29.8429C33.6071 28.7513 33.9892 27.8233 34.7534 27.0592C35.5176 26.295 36.4455 25.9129 37.5371 25.9129C38.6288 25.9129 39.5567 26.295 40.3209 27.0592C41.0851 27.8233 41.4671 28.7513 41.4671 29.8429C41.4671 30.9346 41.0851 31.8625 40.3209 32.6267C39.5567 33.3908 38.6288 33.7729 37.5371 33.7729ZM33.8144 61.8154C29.7206 61.8154 25.5723 61.679 21.3694 61.4061C17.2211 61.0786 13.2911 60.4781 9.57939 59.6048C5.86772 58.7315 2.6746 57.4488 1.24876e-05 55.7567L2.94751 50.9261H3.84814C6.5773 52.5636 10.3708 53.7644 15.2288 54.5286C20.0867 55.2927 26.2819 55.6748 33.8144 55.6748H59.4413V61.8154H33.8144ZM59.3594 61.8154L59.605 58.3767C59.605 58.3767 59.5231 57.5033 59.3594 55.7567C59.1956 53.9554 59.0319 51.6629 58.8681 48.8792C58.7044 46.0954 58.6225 43.1752 58.6225 40.1186V32.9136L64.5175 32.1767L64.7631 32.8317V41.5923C64.7631 43.8302 64.8177 46.0681 64.9269 48.3061C65.0906 50.544 65.2271 52.6181 65.3363 54.5286C65.5 56.3844 65.6365 57.8854 65.7456 59.0317C65.9094 60.1233 65.9913 60.6692 65.9913 60.6692L64.7631 61.8154H59.3594ZM51.5813 61.8154V55.6748H60.26V61.8154H51.5813ZM51.5813 61.8154C50.9808 61.8154 50.5442 61.5152 50.2713 60.9148C50.0529 60.3144 49.9438 59.5775 49.9438 58.7042C49.9438 57.7763 50.0529 57.0394 50.2713 56.4936C50.5442 55.9477 50.9808 55.6748 51.5813 55.6748V61.8154ZM82.3675 61.8154L76.2269 61.7336V0.736675L82.1219 -0.000199802L82.3675 0.654802V61.8154ZM76.2269 61.8154V55.6748H89.4088V61.8154H76.2269ZM89.4088 61.8154V55.6748C90.0638 55.6748 90.5005 55.9477 90.7188 56.4936C90.9371 57.0394 91.0463 57.7763 91.0463 58.7042C91.0463 59.5775 90.9371 60.3144 90.7188 60.9148C90.5005 61.5152 90.0638 61.8154 89.4088 61.8154ZM89.4453 61.8154V55.6748H99.5159C102.245 55.6748 104.865 55.2927 107.376 54.5286C109.887 53.7644 112.125 52.7273 114.09 51.4173C116.055 50.1073 117.61 48.6336 118.757 46.9961C119.903 45.3586 120.476 43.6938 120.476 42.0017C120.476 40.255 119.766 38.8904 118.347 37.9079C116.983 36.9254 114.854 36.4342 111.961 36.4342C109.887 36.4342 107.758 36.7344 105.575 37.3348C103.391 37.8806 101.344 38.6448 99.434 39.6273L99.5159 40.6917C101.754 41.8925 103.61 43.339 105.083 45.0311C106.612 46.7231 107.84 48.1969 108.768 49.4523C109.75 50.7623 110.624 51.8267 111.388 52.6454C112.152 53.4642 112.943 54.0919 113.762 54.5286C114.581 54.9652 115.509 55.2654 116.546 55.4292C117.638 55.5929 118.92 55.6748 120.394 55.6748H132.348V61.8154H120.394C117.064 61.8154 114.39 61.4333 112.37 60.6692C110.405 59.8504 108.768 58.7861 107.458 57.4761C106.202 56.1115 105.002 54.665 103.855 53.1367C102.654 51.4992 101.29 49.889 99.7615 48.3061C98.2332 46.7231 96.1863 45.5769 93.6209 44.8673L93.1296 36.8436L93.3753 36.1886C95.7769 34.4419 98.6425 33.0227 101.972 31.9311C105.356 30.8394 108.686 30.2936 111.961 30.2936C116.328 30.2936 119.848 31.3033 122.523 33.3229C125.252 35.3425 126.617 38.2354 126.617 42.0017C126.617 44.84 125.825 47.4873 124.242 49.9436C122.714 52.3452 120.612 54.4467 117.938 56.2479C115.318 57.9946 112.398 59.3592 109.177 60.3417C106.011 61.3242 102.791 61.8154 99.5159 61.8154H89.4453ZM89.4453 61.8154C88.8448 61.8154 88.4355 61.5152 88.2171 60.9148C87.9442 60.3144 87.8078 59.5775 87.8078 58.7042C87.8078 57.7763 87.9442 57.0394 88.2171 56.4936C88.4355 55.9477 88.8448 55.6748 89.4453 55.6748V61.8154ZM132.348 61.8154V55.6748C133.003 55.6748 133.439 55.9477 133.658 56.4936C133.876 57.0394 133.985 57.7763 133.985 58.7042C133.985 59.5775 133.876 60.3144 133.658 60.9148C133.439 61.5152 133.003 61.8154 132.348 61.8154ZM142.043 59.6048C141.224 58.1311 140.569 56.4117 140.078 54.4467C139.641 52.4817 139.423 50.5167 139.423 48.5517C139.423 44.9492 140.132 41.9471 141.552 39.5454C142.971 37.0892 144.799 35.2606 147.037 34.0598C149.275 32.8044 151.568 32.1767 153.915 32.1767C156.316 32.1767 158.609 32.8044 160.792 34.0598C163.03 35.2606 164.859 37.0892 166.278 39.5454C167.697 41.9471 168.407 44.9492 168.407 48.5517C168.407 50.5167 168.161 52.4817 167.67 54.4467C167.233 56.4117 166.605 58.1311 165.787 59.6048L160.383 56.6573C160.983 55.5656 161.447 54.3375 161.775 52.9729C162.102 51.5538 162.266 50.08 162.266 48.5517C162.266 46.4775 161.911 44.6763 161.202 43.1479C160.492 41.6196 159.51 40.4461 158.254 39.6273C156.999 38.754 155.552 38.3173 153.915 38.3173C152.332 38.3173 150.885 38.754 149.575 39.6273C148.32 40.4461 147.337 41.6196 146.628 43.1479C145.918 44.6763 145.564 46.4775 145.564 48.5517C145.564 50.08 145.727 51.5538 146.055 52.9729C146.382 54.3375 146.846 55.5656 147.447 56.6573L142.043 59.6048ZM132.382 61.8154V55.6748H146.219V61.8154H132.382ZM153.915 64.3536C151.95 64.3536 149.957 64.0261 147.938 63.3711C145.973 62.7706 144.035 61.87 142.125 60.6692L145.482 55.5111C146.901 56.3844 148.293 57.0667 149.657 57.5579C151.076 57.9946 152.496 58.2129 153.915 58.2129C155.334 58.2129 156.753 57.9946 158.172 57.5579C159.591 57.0667 160.983 56.3844 162.348 55.5111L165.705 60.6692C163.849 61.87 161.911 62.7706 159.892 63.3711C157.872 64.0261 155.88 64.3536 153.915 64.3536ZM161.611 61.8154V55.6748H175.448V61.8154H161.611ZM132.382 61.8154C131.781 61.8154 131.372 61.5152 131.154 60.9148C130.881 60.3144 130.744 59.5775 130.744 58.7042C130.744 57.7763 130.881 57.0394 131.154 56.4936C131.372 55.9477 131.781 55.6748 132.382 55.6748V61.8154ZM175.448 61.8154V55.6748C176.103 55.6748 176.54 55.9477 176.758 56.4936C176.976 57.0394 177.085 57.7763 177.085 58.7042C177.085 59.5775 176.976 60.3144 176.758 60.9148C176.54 61.5152 176.103 61.8154 175.448 61.8154ZM197.958 77.6754C196.866 77.6754 195.938 77.2933 195.174 76.5292C194.41 75.765 194.028 74.8371 194.028 73.7454C194.028 72.6538 194.41 71.7258 195.174 70.9617C195.938 70.1975 196.866 69.8154 197.958 69.8154C199.049 69.8154 199.977 70.1975 200.742 70.9617C201.506 71.7258 201.888 72.6538 201.888 73.7454C201.888 74.8371 201.506 75.765 200.742 76.5292C199.977 77.2933 199.049 77.6754 197.958 77.6754ZM218.299 61.4879C214.86 60.56 211.367 59.2773 207.819 57.6398C204.271 56.0023 200.805 54.0646 197.42 51.8267C194.091 49.5342 190.925 47.0506 187.923 44.3761C184.921 41.6469 182.219 38.7813 179.817 35.7792L184.32 32.1767H184.894C186.64 34.3054 188.796 36.5979 191.362 39.0542C193.982 41.5104 196.902 43.8848 200.122 46.1773C203.397 48.4698 206.891 50.5167 210.602 52.3179C214.369 54.0646 218.244 55.3473 222.229 56.1661L218.299 61.4879ZM175.478 61.8154V55.6748H197.502C198.867 55.6748 200.204 55.7294 201.514 55.8386C202.879 55.8931 203.998 55.975 204.871 56.0842C205.744 56.1933 206.181 56.2479 206.181 56.2479L213.877 55.6748H224.357V56.2479L222.638 61.8154H175.478ZM175.478 61.8154C174.878 61.8154 174.468 61.5152 174.25 60.9148C173.977 60.3144 173.84 59.5775 173.84 58.7042C173.84 57.7763 173.977 57.0394 174.25 56.4936C174.468 55.9477 174.878 55.6748 175.478 55.6748V61.8154Z" fill="url(#paint0_linear_119_223)"/>
</g>
<defs>
<filter id="filter0_i_119_223" x="0" y="-1.24872" width="224.357" height="78.9245" filterUnits="userSpaceOnUse" color-interpolation-filters="sRGB">
<feFlood flood-opacity="0" result="BackgroundImageFix"/>
<feBlend mode="normal" in="SourceGraphic" in2="BackgroundImageFix" result="shape"/>
<feColorMatrix in="SourceAlpha" type="matrix" values="0 0 0 0 0 0 0 0 0 0 0 0 0 0 0 0 0 0 127 0" result="hardAlpha"/>
<feOffset dy="-7.49233"/>
<feGaussianBlur stdDeviation="0.624361"/>
<feComposite in2="hardAlpha" operator="arithmetic" k2="-1" k3="1"/>
<feColorMatrix type="matrix" values="0 0 0 0 0 0 0 0 0 0 0 0 0 0 0 0 0 0 1 0"/>
<feBlend mode="overlay" in2="shape" result="effect1_innerShadow_119_223"/>
</filter>
<linearGradient id="paint0_linear_119_223" x1="112.393" y1="9.81543" x2="112.393" y2="65.93" gradientUnits="userSpaceOnUse">
<stop offset="1" stop-color="#E3614E"/>
</linearGradient>
</defs>
</svg>
