<svg width="264" height="43" viewBox="0 0 264 43" fill="none" xmlns="http://www.w3.org/2000/svg">
<g filter="url(#filter0_i_60_5994)">
<path d="M19.8446 42.6C17.3646 42.6 14.9846 42.28 12.7046 41.64C10.4646 41 8.44461 40.06 6.64461 38.82C4.88461 37.54 3.48461 36 2.44461 34.2C1.40461 32.36 0.864609 30.26 0.824609 27.9C0.824609 27.54 0.944609 27.24 1.18461 27C1.46461 26.72 1.78461 26.58 2.14461 26.58H14.3846C15.0646 26.58 15.5646 26.74 15.8846 27.06C16.2446 27.34 16.5646 27.82 16.8446 28.5C17.1246 29.02 17.4046 29.46 17.6846 29.82C17.9646 30.18 18.3046 30.46 18.7046 30.66C19.1446 30.82 19.6846 30.9 20.3246 30.9C21.4046 30.9 22.2646 30.56 22.9046 29.88C23.5446 29.16 23.8646 27.88 23.8646 26.04V12.18H6.04461C5.60461 12.18 5.22461 12.02 4.90461 11.7C4.58461 11.38 4.42461 11 4.42461 10.56V1.62C4.42461 1.18 4.58461 0.799999 4.90461 0.479998C5.22461 0.159997 5.60461 -2.86102e-06 6.04461 -2.86102e-06H37.7846C38.2246 -2.86102e-06 38.6046 0.159997 38.9246 0.479998C39.2446 0.799999 39.4046 1.18 39.4046 1.62V26.52C39.4046 30.2 38.5246 33.24 36.7646 35.64C35.0446 38 32.7046 39.76 29.7446 40.92C26.7846 42.04 23.4846 42.6 19.8446 42.6ZM42.5602 42C42.2002 42 41.8802 41.88 41.6002 41.64C41.3602 41.36 41.2402 41.04 41.2402 40.68C41.2402 40.52 41.2602 40.38 41.3002 40.26L54.6802 1.98C54.8002 1.54 55.0802 1.1 55.5202 0.659999C55.9602 0.219998 56.5802 -2.86102e-06 57.3802 -2.86102e-06H70.4002C71.2002 -2.86102e-06 71.8202 0.219998 72.2602 0.659999C72.7002 1.1 72.9802 1.54 73.1002 1.98L86.4802 40.26C86.5202 40.38 86.5402 40.52 86.5402 40.68C86.5402 41.04 86.4002 41.36 86.1202 41.64C85.8802 41.88 85.5802 42 85.2202 42H74.1202C73.3602 42 72.8002 41.84 72.4402 41.52C72.1202 41.16 71.9002 40.82 71.7802 40.5L70.3402 36.54H57.4402L56.0002 40.5C55.8802 40.82 55.6602 41.16 55.3402 41.52C55.0202 41.84 54.4602 42 53.6602 42H42.5602ZM60.5002 24.84H67.2802L63.8602 13.68L60.5002 24.84ZM91.4532 42C91.0132 42 90.6332 41.84 90.3132 41.52C89.9932 41.2 89.8332 40.82 89.8332 40.38V1.62C89.8332 1.18 89.9932 0.799999 90.3132 0.479998C90.6332 0.159997 91.0132 -2.86102e-06 91.4532 -2.86102e-06H100.933C101.733 -2.86102e-06 102.333 0.219998 102.733 0.659999C103.133 1.1 103.393 1.42 103.513 1.62L112.213 16.02L120.913 1.62C121.033 1.42 121.293 1.1 121.693 0.659999C122.093 0.219998 122.693 -2.86102e-06 123.493 -2.86102e-06H132.973C133.413 -2.86102e-06 133.793 0.159997 134.113 0.479998C134.433 0.799999 134.593 1.18 134.593 1.62V40.38C134.593 40.82 134.433 41.2 134.113 41.52C133.793 41.84 133.413 42 132.973 42H122.113C121.673 42 121.293 41.84 120.973 41.52C120.653 41.2 120.493 40.82 120.493 40.38V23.94L116.533 30.42C116.333 30.74 116.053 31.08 115.693 31.44C115.373 31.76 114.913 31.92 114.313 31.92H110.113C109.513 31.92 109.033 31.76 108.673 31.44C108.353 31.08 108.093 30.74 107.893 30.42L103.933 23.94V40.38C103.933 40.82 103.773 41.2 103.453 41.52C103.133 41.84 102.753 42 102.313 42H91.4532ZM139.24 42C138.88 42 138.56 41.88 138.28 41.64C138.04 41.36 137.92 41.04 137.92 40.68C137.92 40.52 137.94 40.38 137.98 40.26L151.36 1.98C151.48 1.54 151.76 1.1 152.2 0.659999C152.64 0.219998 153.26 -2.86102e-06 154.06 -2.86102e-06H167.08C167.88 -2.86102e-06 168.5 0.219998 168.94 0.659999C169.38 1.1 169.66 1.54 169.78 1.98L183.16 40.26C183.2 40.38 183.22 40.52 183.22 40.68C183.22 41.04 183.08 41.36 182.8 41.64C182.56 41.88 182.26 42 181.9 42H170.8C170.04 42 169.48 41.84 169.12 41.52C168.8 41.16 168.58 40.82 168.46 40.5L167.02 36.54H154.12L152.68 40.5C152.56 40.82 152.34 41.16 152.02 41.52C151.7 41.84 151.14 42 150.34 42H139.24ZM157.18 24.84H163.96L160.54 13.68L157.18 24.84ZM184.533 42C184.173 42 183.853 41.88 183.573 41.64C183.333 41.36 183.213 41.04 183.213 40.68C183.213 40.52 183.233 40.38 183.273 40.26L196.653 1.98C196.773 1.54 197.053 1.1 197.493 0.659999C197.933 0.219998 198.553 -2.86102e-06 199.353 -2.86102e-06H212.373C213.173 -2.86102e-06 213.793 0.219998 214.233 0.659999C214.673 1.1 214.953 1.54 215.073 1.98L228.453 40.26C228.493 40.38 228.513 40.52 228.513 40.68C228.513 41.04 228.373 41.36 228.093 41.64C227.853 41.88 227.553 42 227.193 42H216.093C215.333 42 214.773 41.84 214.413 41.52C214.093 41.16 213.873 40.82 213.753 40.5L212.313 36.54H199.413L197.973 40.5C197.853 40.82 197.633 41.16 197.313 41.52C196.993 41.84 196.433 42 195.633 42H184.533ZM202.473 24.84H209.253L205.833 13.68L202.473 24.84ZM238.566 42C238.126 42 237.746 41.84 237.426 41.52C237.106 41.2 236.946 40.82 236.946 40.38V12.9H226.986C226.546 12.9 226.166 12.74 225.846 12.42C225.526 12.1 225.366 11.72 225.366 11.28V1.62C225.366 1.18 225.526 0.799999 225.846 0.479998C226.166 0.159997 226.546 -2.86102e-06 226.986 -2.86102e-06H262.146C262.586 -2.86102e-06 262.966 0.159997 263.286 0.479998C263.606 0.799999 263.766 1.18 263.766 1.62V11.28C263.766 11.72 263.606 12.1 263.286 12.42C262.966 12.74 262.586 12.9 262.146 12.9H252.186V40.38C252.186 40.82 252.026 41.2 251.706 41.52C251.386 41.84 251.006 42 250.566 42H238.566Z" fill="url(#paint0_linear_60_5994)"/>
</g>
<defs>
<filter id="filter0_i_60_5994" x="0.824707" y="-0.915094" width="262.941" height="43.5147" filterUnits="userSpaceOnUse" color-interpolation-filters="sRGB">
<feFlood flood-opacity="0" result="BackgroundImageFix"/>
<feBlend mode="normal" in="SourceGraphic" in2="BackgroundImageFix" result="shape"/>
<feColorMatrix in="SourceAlpha" type="matrix" values="0 0 0 0 0 0 0 0 0 0 0 0 0 0 0 0 0 0 127 0" result="hardAlpha"/>
<feOffset dy="-5.49057"/>
<feGaussianBlur stdDeviation="0.457547"/>
<feComposite in2="hardAlpha" operator="arithmetic" k2="-1" k3="1"/>
<feColorMatrix type="matrix" values="0 0 0 0 0 0 0 0 0 0 0 0 0 0 0 0 0 0 1 0"/>
<feBlend mode="overlay" in2="shape" result="effect1_innerShadow_60_5994"/>
</filter>
<linearGradient id="paint0_linear_60_5994" x1="132.5" y1="1" x2="132.5" y2="42" gradientUnits="userSpaceOnUse">
<stop stop-color="#F9B85E"/>
<stop offset="1" stop-color="#D49228"/>
</linearGradient>
</defs>
</svg>
