<svg width="26" height="26" viewBox="0 0 26 26" fill="none" xmlns="http://www.w3.org/2000/svg">
<path d="M11.375 8.9375C11.375 8.48877 11.0112 8.125 10.5625 8.125C10.1138 8.125 9.75 8.48877 9.75 8.9375V17.0625C9.75 17.5112 10.1138 17.875 10.5625 17.875C11.0112 17.875 11.375 17.5112 11.375 17.0625V8.9375ZM16.25 8.9375C16.25 8.48877 15.8862 8.125 15.4375 8.125C14.9888 8.125 14.625 8.48877 14.625 8.9375V17.0625C14.625 17.5112 14.9888 17.875 15.4375 17.875C15.8862 17.875 16.25 17.5112 16.25 17.0625V8.9375Z" fill="#24054D"/>
<path d="M13 3.25C14.9284 3.25 16.8134 3.82183 18.4168 4.89317C20.0202 5.96452 21.2699 7.48726 22.0078 9.26884C22.7458 11.0504 22.9389 13.0108 22.5627 14.9021C22.1865 16.7934 21.2579 18.5307 19.8943 19.8943C18.5307 21.2579 16.7934 22.1864 14.9021 22.5627C13.0108 22.9389 11.0504 22.7458 9.26884 22.0078C7.48726 21.2699 5.96452 20.0202 4.89318 18.4168C3.82183 16.8134 3.25001 14.9284 3.25001 13C3.25001 10.4141 4.27723 7.93419 6.10571 6.10571C7.93419 4.27723 10.4141 3.25 13 3.25ZM13 1.625C10.7502 1.625 8.551 2.29213 6.68039 3.54203C4.80978 4.79193 3.35182 6.56847 2.49088 8.64698C1.62993 10.7255 1.40467 13.0126 1.84357 15.2192C2.28248 17.4257 3.36584 19.4525 4.95667 21.0433C6.54749 22.6342 8.57432 23.7175 10.7809 24.1564C12.9874 24.5953 15.2745 24.3701 17.353 23.5091C19.4315 22.6482 21.2081 21.1902 22.458 19.3196C23.7079 17.449 24.375 15.2498 24.375 13C24.375 9.98316 23.1766 7.08989 21.0433 4.95666C18.9101 2.82343 16.0168 1.625 13 1.625Z" fill="#24054D"/>
</svg>
