<svg width="231" height="117" viewBox="0 0 231 117" fill="none" xmlns="http://www.w3.org/2000/svg">
<mask id="path-1-outside-1_57_3379" maskUnits="userSpaceOnUse" x="70.1097" y="3.49072" width="92" height="93" fill="black">
<rect fill="white" x="70.1097" y="3.49072" width="92" height="93"/>
<path d="M112.386 7.7202C113.853 4.74751 118.092 4.74761 119.56 7.7202L130.016 28.9067C130.599 30.0872 131.725 30.9058 133.028 31.0952L156.409 34.4927C159.443 34.9337 160.789 38.4137 159.096 40.7651C160.153 42.2714 160.148 44.462 158.625 45.9468L141.707 62.438C141.385 62.7521 141.124 63.1147 140.927 63.5063L144.55 84.6333C144.707 85.5466 144.551 86.3987 144.182 87.1196L144.55 89.2651C145.11 92.5326 141.681 95.0236 138.746 93.4809L117.834 82.4868C116.669 81.8744 115.277 81.8743 114.112 82.4868L93.1995 93.4809C90.2652 95.0236 86.8358 92.5325 87.3958 89.2651L87.763 87.1196C87.3943 86.3988 87.2393 85.5463 87.3958 84.6333L91.0189 63.5054C90.822 63.1141 90.5616 62.7519 90.2396 62.438L73.3206 45.9468C71.798 44.4623 71.7931 42.2723 72.8499 40.7661C71.1565 38.4146 72.5037 34.9336 75.5384 34.4927L98.9183 31.0952C100.221 30.9059 101.347 30.0873 101.93 28.9067L112.386 7.7202Z"/>
</mask>
<path d="M112.386 7.7202C113.853 4.74751 118.092 4.74761 119.56 7.7202L130.016 28.9067C130.599 30.0872 131.725 30.9058 133.028 31.0952L156.409 34.4927C159.443 34.9337 160.789 38.4137 159.096 40.7651C160.153 42.2714 160.148 44.462 158.625 45.9468L141.707 62.438C141.385 62.7521 141.124 63.1147 140.927 63.5063L144.55 84.6333C144.707 85.5466 144.551 86.3987 144.182 87.1196L144.55 89.2651C145.11 92.5326 141.681 95.0236 138.746 93.4809L117.834 82.4868C116.669 81.8744 115.277 81.8743 114.112 82.4868L93.1995 93.4809C90.2652 95.0236 86.8358 92.5325 87.3958 89.2651L87.763 87.1196C87.3943 86.3988 87.2393 85.5463 87.3958 84.6333L91.0189 63.5054C90.822 63.1141 90.5616 62.7519 90.2396 62.438L73.3206 45.9468C71.798 44.4623 71.7931 42.2723 72.8499 40.7661C71.1565 38.4146 72.5037 34.9336 75.5384 34.4927L98.9183 31.0952C100.221 30.9059 101.347 30.0873 101.93 28.9067L112.386 7.7202Z" fill="url(#paint0_linear_57_3379)"/>
<path d="M112.386 7.7202L110.593 6.83498L110.593 6.83508L112.386 7.7202ZM119.56 7.7202L121.353 6.83508L121.353 6.83491L119.56 7.7202ZM130.016 28.9067L128.222 29.7918L128.222 29.7919L130.016 28.9067ZM133.028 31.0952L132.74 33.0744L132.74 33.0744L133.028 31.0952ZM156.409 34.4927L156.696 32.5135L156.696 32.5134L156.409 34.4927ZM159.096 40.7651L157.473 39.5966L156.642 40.7505L157.459 41.9142L159.096 40.7651ZM158.625 45.9468L160.021 47.3789L160.021 47.3789L158.625 45.9468ZM141.707 62.438L143.103 63.8701L143.103 63.8701L141.707 62.438ZM140.927 63.5063L139.14 62.608L138.845 63.1958L138.956 63.8444L140.927 63.5063ZM144.55 84.6333L146.521 84.2954L146.521 84.2952L144.55 84.6333ZM144.182 87.1196L142.402 86.2085L142.098 86.8014L142.211 87.4579L144.182 87.1196ZM144.55 89.2651L146.521 88.9272L146.521 88.9269L144.55 89.2651ZM138.746 93.4809L139.677 91.7107L138.746 93.4809ZM117.834 82.4868L118.765 80.7165L118.765 80.7164L117.834 82.4868ZM114.112 82.4868L113.181 80.7165L113.181 80.7165L114.112 82.4868ZM93.1995 93.4809L92.2688 91.7107L93.1995 93.4809ZM87.3958 89.2651L89.3671 89.603L89.3672 89.6025L87.3958 89.2651ZM87.763 87.1196L89.7343 87.457L89.8466 86.8011L89.5435 86.2088L87.763 87.1196ZM87.3958 84.6333L85.4246 84.2953L85.4246 84.2954L87.3958 84.6333ZM91.0189 63.5054L92.9901 63.8434L93.1013 63.1946L92.8055 62.6065L91.0189 63.5054ZM90.2396 62.438L91.6356 61.0058L91.6356 61.0058L90.2396 62.438ZM73.3206 45.9468L71.9244 47.3788L71.9246 47.379L73.3206 45.9468ZM72.8499 40.7661L74.4871 41.9148L75.3037 40.751L74.4729 39.5973L72.8499 40.7661ZM75.5384 34.4927L75.826 36.4719L75.826 36.4719L75.5384 34.4927ZM98.9183 31.0952L98.6307 29.116L98.6307 29.116L98.9183 31.0952ZM101.93 28.9067L103.723 29.7919L103.723 29.7918L101.93 28.9067ZM112.386 7.7202L114.179 8.60542C114.913 7.11923 117.033 7.11906 117.766 8.60549L119.56 7.7202L121.353 6.83491C119.152 2.37616 112.794 2.3758 110.593 6.83498L112.386 7.7202ZM119.56 7.7202L117.766 8.60532L128.222 29.7918L130.016 28.9067L131.809 28.0216L121.353 6.83508L119.56 7.7202ZM130.016 28.9067L128.222 29.7919C129.096 31.5624 130.786 32.7903 132.74 33.0744L133.028 31.0952L133.315 29.116C132.664 29.0213 132.101 28.612 131.809 28.0216L130.016 28.9067ZM133.028 31.0952L132.74 33.0744L156.121 36.4719L156.409 34.4927L156.696 32.5134L133.315 29.116L133.028 31.0952ZM156.409 34.4927L156.121 36.4719C157.624 36.6904 158.316 38.4252 157.473 39.5966L159.096 40.7651L160.719 41.9337C163.262 38.4022 161.262 33.1771 156.696 32.5135L156.409 34.4927ZM159.096 40.7651L157.459 41.9142C158.011 42.7008 157.979 43.7835 157.229 44.5147L158.625 45.9468L160.021 47.3789C162.317 45.1405 162.296 41.842 160.733 39.616L159.096 40.7651ZM158.625 45.9468L157.229 44.5146L140.311 61.0058L141.707 62.438L143.103 63.8701L160.021 47.3789L158.625 45.9468ZM141.707 62.438L140.311 61.0058C139.824 61.4804 139.433 62.025 139.14 62.608L140.927 63.5063L142.714 64.4047C142.815 64.2044 142.946 64.0239 143.103 63.8701L141.707 62.438ZM140.927 63.5063L138.956 63.8444L142.579 84.9713L144.55 84.6333L146.521 84.2952L142.898 63.1683L140.927 63.5063ZM144.55 84.6333L142.579 84.9712C142.66 85.4473 142.579 85.8621 142.402 86.2085L144.182 87.1196L145.962 88.0307C146.523 86.9353 146.753 85.6459 146.521 84.2954L144.55 84.6333ZM144.182 87.1196L142.211 87.4579L142.579 89.6034L144.55 89.2651L146.521 88.9269L146.153 86.7814L144.182 87.1196ZM144.55 89.2651L142.579 89.603C142.859 91.2364 141.145 92.4822 139.677 91.7107L138.746 93.4809L137.816 95.2512C142.217 97.5651 147.362 93.8287 146.521 88.9272L144.55 89.2651ZM138.746 93.4809L139.677 91.7107L118.765 80.7165L117.834 82.4868L116.904 84.2571L137.816 95.2512L138.746 93.4809ZM117.834 82.4868L118.765 80.7164C117.017 79.7979 114.929 79.7976 113.181 80.7165L114.112 82.4868L115.042 84.2571C115.625 83.9509 116.321 83.9509 116.904 84.2572L117.834 82.4868ZM114.112 82.4868L113.181 80.7165L92.2688 91.7107L93.1995 93.4809L94.1302 95.2512L115.042 84.2571L114.112 82.4868ZM93.1995 93.4809L92.2688 91.7107C90.8014 92.4821 89.0871 91.2364 89.3671 89.603L87.3958 89.2651L85.4246 88.9272C84.5844 93.8286 89.7289 97.5651 94.1302 95.2512L93.1995 93.4809ZM87.3958 89.2651L89.3672 89.6025L89.7343 87.457L87.763 87.1196L85.7917 86.7822L85.4245 88.9277L87.3958 89.2651ZM87.763 87.1196L89.5435 86.2088C89.367 85.8637 89.2853 85.4484 89.3671 84.9712L87.3958 84.6333L85.4246 84.2954C85.1934 85.6442 85.4215 86.934 85.9825 88.0305L87.763 87.1196ZM87.3958 84.6333L89.367 84.9713L92.9901 63.8434L91.0189 63.5054L89.0476 63.1673L85.4246 84.2953L87.3958 84.6333ZM91.0189 63.5054L92.8055 62.6065C92.5131 62.0252 92.1229 61.4808 91.6356 61.0058L90.2396 62.438L88.8435 63.8701C89.0003 64.0229 89.131 64.203 89.2322 64.4042L91.0189 63.5054ZM90.2396 62.438L91.6356 61.0058L74.7166 44.5146L73.3206 45.9468L71.9246 47.379L88.8436 63.8702L90.2396 62.438ZM73.3206 45.9468L74.7168 44.5147C73.9672 43.7839 73.9351 42.7016 74.4871 41.9148L72.8499 40.7661L71.2127 39.6174C69.6512 41.8429 69.6288 45.1406 71.9244 47.3788L73.3206 45.9468ZM72.8499 40.7661L74.4729 39.5973C73.6298 38.4266 74.3218 36.6904 75.826 36.4719L75.5384 34.4927L75.2508 32.5134C70.6856 33.1768 68.6832 38.4026 71.227 41.9349L72.8499 40.7661ZM75.5384 34.4927L75.826 36.4719L99.2059 33.0744L98.9183 31.0952L98.6307 29.116L75.2508 32.5134L75.5384 34.4927ZM98.9183 31.0952L99.2059 33.0744C101.16 32.7904 102.85 31.5624 103.723 29.7919L101.93 28.9067L100.137 28.0216C99.8451 28.6122 99.2818 29.0214 98.6307 29.116L98.9183 31.0952ZM101.93 28.9067L103.723 29.7918L114.18 8.60532L112.386 7.7202L110.593 6.83508L100.137 28.0216L101.93 28.9067Z" fill="white" mask="url(#path-1-outside-1_57_3379)"/>
<g filter="url(#filter0_d_57_3379)">
<path d="M112.706 7.77966C114.173 4.80668 118.412 4.80668 119.88 7.77966L130.336 28.9659C130.918 30.1465 132.044 30.9648 133.347 31.1541L156.728 34.5515C160.009 35.0282 161.319 39.0601 158.945 41.3743L142.026 57.8655C141.084 58.7844 140.653 60.1084 140.876 61.406L144.87 84.692C145.43 87.9596 142.001 90.4514 139.066 88.9087L118.154 77.9145C116.989 77.3019 115.597 77.3019 114.431 77.9145L93.5191 88.9087C90.5846 90.4515 87.1549 87.9596 87.7153 84.692L91.7092 61.406C91.9317 60.1084 91.5015 58.7844 90.5588 57.8655L73.6405 41.3743C71.2665 39.0601 72.5765 35.0282 75.8574 34.5515L99.2378 31.1541C100.541 30.9648 101.667 30.1465 102.25 28.9659L112.706 7.77966Z" fill="url(#paint1_linear_57_3379)"/>
</g>
<mask id="path-4-outside-2_57_3379" maskUnits="userSpaceOnUse" x="4.6033" y="34.8271" width="76" height="77" fill="black">
<rect fill="white" x="4.6033" y="34.8271" width="76" height="77"/>
<path d="M38.8047 39.0566C40.2721 36.0841 44.5113 36.0839 45.9785 39.0566L53.9385 55.1865C54.5211 56.367 55.6475 57.1856 56.9502 57.375L74.751 59.9609C77.6256 60.3789 78.986 63.526 77.6817 65.8555C78.4834 67.3316 78.3626 69.2836 76.9678 70.6436L64.0869 83.1992C63.7085 83.5682 63.4141 84.003 63.21 84.4746L65.9776 100.607C66.1196 101.435 66.0035 102.213 65.7061 102.889L65.9776 104.468C66.5379 107.735 63.1082 110.227 60.1739 108.685L44.253 100.314C43.0877 99.7019 41.6956 99.7019 40.5303 100.314L24.6094 108.685C21.6749 110.227 18.2453 107.735 18.8057 104.468L19.0752 102.891C18.7774 102.215 18.6636 101.436 18.8057 100.607L21.5723 84.4736C21.3681 84.0023 21.0736 83.568 20.6953 83.1992L7.81546 70.6436C6.42023 69.2835 6.29774 67.3308 7.09964 65.8545C5.79649 63.5251 7.15788 60.3786 10.0323 59.9609L27.8321 57.375C29.1349 57.1857 30.2611 56.3671 30.8438 55.1865L38.8047 39.0566Z"/>
</mask>
<path d="M38.8047 39.0566C40.2721 36.0841 44.5113 36.0839 45.9785 39.0566L53.9385 55.1865C54.5211 56.367 55.6475 57.1856 56.9502 57.375L74.751 59.9609C77.6256 60.3789 78.986 63.526 77.6817 65.8555C78.4834 67.3316 78.3626 69.2836 76.9678 70.6436L64.0869 83.1992C63.7085 83.5682 63.4141 84.003 63.21 84.4746L65.9776 100.607C66.1196 101.435 66.0035 102.213 65.7061 102.889L65.9776 104.468C66.5379 107.735 63.1082 110.227 60.1739 108.685L44.253 100.314C43.0877 99.7019 41.6956 99.7019 40.5303 100.314L24.6094 108.685C21.6749 110.227 18.2453 107.735 18.8057 104.468L19.0752 102.891C18.7774 102.215 18.6636 101.436 18.8057 100.607L21.5723 84.4736C21.3681 84.0023 21.0736 83.568 20.6953 83.1992L7.81546 70.6436C6.42023 69.2835 6.29774 67.3308 7.09964 65.8545C5.79649 63.5251 7.15788 60.3786 10.0323 59.9609L27.8321 57.375C29.1349 57.1857 30.2611 56.3671 30.8438 55.1865L38.8047 39.0566Z" fill="url(#paint2_linear_57_3379)"/>
<path d="M38.8047 39.0566L37.0113 38.1713L37.0113 38.1715L38.8047 39.0566ZM45.9785 39.0566L47.772 38.1716L47.772 38.1715L45.9785 39.0566ZM53.9385 55.1865L52.145 56.0716L52.145 56.0717L53.9385 55.1865ZM56.9502 57.375L56.6625 59.3542L56.6627 59.3542L56.9502 57.375ZM74.751 59.9609L75.0388 57.9818L75.0385 57.9817L74.751 59.9609ZM77.6817 65.8555L75.9366 64.8784L75.3977 65.8407L75.9241 66.81L77.6817 65.8555ZM76.9678 70.6436L78.3638 72.0757L78.364 72.0756L76.9678 70.6436ZM64.0869 83.1992L62.6909 81.767L62.6908 81.7671L64.0869 83.1992ZM63.21 84.4746L61.3746 83.6801L61.1382 84.2262L61.2388 84.8128L63.21 84.4746ZM65.9776 100.607L67.9488 100.269L67.9488 100.269L65.9776 100.607ZM65.7061 102.889L63.8757 102.083L63.6329 102.634L63.735 103.228L65.7061 102.889ZM65.9776 104.468L67.9488 104.13L67.9487 104.129L65.9776 104.468ZM60.1739 108.685L59.2432 110.455L59.2433 110.455L60.1739 108.685ZM44.253 100.314L45.1836 98.5442L44.253 100.314ZM40.5303 100.314L39.5997 98.5441L39.5996 98.5442L40.5303 100.314ZM24.6094 108.685L25.5401 110.455L24.6094 108.685ZM18.8057 104.468L20.7769 104.806L20.7771 104.805L18.8057 104.468ZM19.0752 102.891L21.0466 103.228L21.148 102.634L20.9053 102.084L19.0752 102.891ZM18.8057 100.607L20.7769 100.946L20.7769 100.945L18.8057 100.607ZM21.5723 84.4736L23.5435 84.8117L23.6441 84.2249L23.4075 83.6786L21.5723 84.4736ZM20.6953 83.1992L19.2993 84.6313L19.2993 84.6314L20.6953 83.1992ZM7.81546 70.6436L9.21153 69.2114L9.21149 69.2114L7.81546 70.6436ZM7.09964 65.8545L8.8571 66.8091L9.38337 65.8403L8.84507 64.878L7.09964 65.8545ZM10.0323 59.9609L9.74472 57.9817L9.74466 57.9817L10.0323 59.9609ZM27.8321 57.375L28.1196 59.3542L28.1197 59.3542L27.8321 57.375ZM30.8438 55.1865L29.0503 54.3014L29.0503 54.3014L30.8438 55.1865ZM38.8047 39.0566L40.5981 39.9419C41.3319 38.4554 43.4516 38.4557 44.1851 39.9418L45.9785 39.0566L47.772 38.1715C45.571 33.7121 39.2123 33.7127 37.0113 38.1713L38.8047 39.0566ZM45.9785 39.0566L44.185 39.9417L52.145 56.0716L53.9385 55.1865L55.732 54.3014L47.772 38.1716L45.9785 39.0566ZM53.9385 55.1865L52.145 56.0717C53.0189 57.8422 54.7082 59.0701 56.6625 59.3542L56.9502 57.375L57.2379 55.3958C56.5867 55.3012 56.0234 54.8919 55.732 54.3014L53.9385 55.1865ZM56.9502 57.375L56.6627 59.3542L74.4635 61.9402L74.751 59.9609L75.0385 57.9817L57.2377 55.3958L56.9502 57.375ZM74.751 59.9609L74.4632 61.9401C75.8809 62.1463 76.59 63.7113 75.9366 64.8784L77.6817 65.8555L79.4267 66.8326C81.3819 63.3407 79.3703 58.6116 75.0388 57.9818L74.751 59.9609ZM77.6817 65.8555L75.9241 66.81C76.3425 67.5804 76.2618 68.5386 75.5716 69.2115L76.9678 70.6436L78.364 72.0756C80.4635 70.0286 80.6242 67.0829 79.4392 64.9009L77.6817 65.8555ZM76.9678 70.6436L75.5718 69.2114L62.6909 81.767L64.0869 83.1992L65.483 84.6314L78.3638 72.0757L76.9678 70.6436ZM64.0869 83.1992L62.6908 81.7671C62.1204 82.3233 61.6792 82.9765 61.3746 83.6801L63.21 84.4746L65.0454 85.2692C65.1491 85.0296 65.2966 84.8131 65.4831 84.6313L64.0869 83.1992ZM63.21 84.4746L61.2388 84.8128L64.0064 100.946L65.9776 100.607L67.9488 100.269L65.1812 84.1364L63.21 84.4746ZM65.9776 100.607L64.0064 100.946C64.0803 101.377 64.0189 101.757 63.8757 102.083L65.7061 102.889L67.5364 103.695C67.9881 102.669 68.1588 101.494 67.9488 100.269L65.9776 100.607ZM65.7061 102.889L63.735 103.228L64.0065 104.807L65.9776 104.468L67.9487 104.129L67.6772 102.55L65.7061 102.889ZM65.9776 104.468L64.0063 104.806C64.2865 106.439 62.5716 107.685 61.1044 106.914L60.1739 108.685L59.2433 110.455C63.6449 112.768 68.7892 109.031 67.9488 104.13L65.9776 104.468ZM60.1739 108.685L61.1045 106.914L45.1836 98.5442L44.253 100.314L43.3223 102.085L59.2432 110.455L60.1739 108.685ZM44.253 100.314L45.1836 98.5442C43.4357 97.6252 41.3475 97.6254 39.5997 98.5441L40.5303 100.314L41.4609 102.085C42.0436 101.778 42.7398 101.778 43.3223 102.085L44.253 100.314ZM40.5303 100.314L39.5996 98.5442L23.6787 106.914L24.6094 108.685L25.5401 110.455L41.461 102.085L40.5303 100.314ZM24.6094 108.685L23.6787 106.914C22.2116 107.686 20.4967 106.44 20.7769 104.806L18.8057 104.468L16.8345 104.13C15.9939 109.031 21.1382 112.769 25.5401 110.455L24.6094 108.685ZM18.8057 104.468L20.7771 104.805L21.0466 103.228L19.0752 102.891L17.1038 102.554L16.8343 104.131L18.8057 104.468ZM19.0752 102.891L20.9053 102.084C20.7638 101.763 20.7021 101.382 20.7769 100.946L18.8057 100.607L16.8345 100.269C16.6251 101.49 16.791 102.667 17.2451 103.697L19.0752 102.891ZM18.8057 100.607L20.7769 100.945L23.5435 84.8117L21.5723 84.4736L19.6011 84.1356L16.8345 100.269L18.8057 100.607ZM21.5723 84.4736L23.4075 83.6786C23.1026 82.9747 22.661 82.3223 22.0914 81.7671L20.6953 83.1992L19.2993 84.6314C19.4862 84.8136 19.6337 85.03 19.7371 85.2687L21.5723 84.4736ZM20.6953 83.1992L22.0914 81.7671L9.21153 69.2114L7.81546 70.6436L6.41938 72.0757L19.2993 84.6313L20.6953 83.1992ZM7.81546 70.6436L9.21149 69.2114C8.51996 68.5373 8.43942 67.5781 8.8571 66.8091L7.09964 65.8545L5.34218 64.8999C4.15605 67.0835 4.3205 70.0298 6.41943 72.0757L7.81546 70.6436ZM7.09964 65.8545L8.84507 64.878C8.19248 63.7115 8.90169 62.1462 10.3199 61.9402L10.0323 59.9609L9.74466 57.9817C5.41406 58.611 3.4005 63.3386 5.3542 66.8309L7.09964 65.8545ZM10.0323 59.9609L10.3198 61.9402L28.1196 59.3542L27.8321 57.375L27.5445 55.3958L9.74472 57.9817L10.0323 59.9609ZM27.8321 57.375L28.1197 59.3542C30.0742 59.0702 31.7634 57.8422 32.6372 56.0717L30.8438 55.1865L29.0503 54.3014C28.7588 54.892 28.1955 55.3012 27.5445 55.3958L27.8321 57.375ZM30.8438 55.1865L32.6372 56.0717L40.5982 39.9418L38.8047 39.0566L37.0113 38.1715L29.0503 54.3014L30.8438 55.1865Z" fill="white" mask="url(#path-4-outside-2_57_3379)"/>
<g filter="url(#filter1_d_57_3379)">
<path d="M39.0705 39.1063C40.5378 36.1333 44.7771 36.1333 46.2444 39.1063L54.2048 55.2359C54.7875 56.4165 55.9137 57.2348 57.2166 57.4241L75.0167 60.0106C78.2975 60.4873 79.6076 64.5192 77.2335 66.8334L64.3533 79.3885C63.4105 80.3075 62.9803 81.6315 63.2029 82.9291L66.2435 100.657C66.8039 103.925 63.3742 106.417 60.4397 104.874L44.5188 96.5038C43.3535 95.8912 41.9614 95.8912 40.7961 96.5038L24.8752 104.874C21.9407 106.417 18.511 103.925 19.0714 100.657L22.112 82.9291C22.3346 81.6315 21.9044 80.3075 20.9616 79.3885L8.08136 66.8334C5.70729 64.5192 7.01733 60.4874 10.2982 60.0106L28.0983 57.4241C29.4011 57.2348 30.5274 56.4165 31.1101 55.2359L39.0705 39.1063Z" fill="url(#paint3_linear_57_3379)"/>
</g>
<mask id="path-7-outside-3_57_3379" maskUnits="userSpaceOnUse" x="150.18" y="34.8276" width="76" height="77" fill="black">
<rect fill="white" x="150.18" y="34.8276" width="76" height="77"/>
<path d="M184.381 39.0573C185.848 36.0844 190.087 36.0845 191.555 39.0573L199.515 55.1872C200.098 56.3676 201.224 57.1854 202.527 57.3747L220.327 59.9616C223.202 60.3793 224.563 63.5266 223.259 65.8561C224.06 67.3323 223.939 69.2844 222.544 70.6442L209.664 83.1989C209.286 83.5677 208.991 84.0029 208.787 84.4743L211.554 100.608C211.696 101.437 211.581 102.216 211.283 102.891L211.554 104.468C212.114 107.736 208.684 110.228 205.75 108.685L189.829 100.315C188.664 99.7025 187.272 99.7025 186.106 100.315L170.185 108.685C167.251 110.227 163.822 107.736 164.382 104.468L164.652 102.889C164.355 102.214 164.24 101.436 164.382 100.608L167.148 84.4743C166.944 84.003 166.651 83.5676 166.272 83.1989L153.391 70.6442C151.997 69.2845 151.875 67.3322 152.677 65.8561C151.372 63.5266 152.734 60.3793 155.609 59.9616L173.409 57.3747C174.712 57.1853 175.838 56.3676 176.421 55.1872L184.381 39.0573Z"/>
</mask>
<path d="M184.381 39.0573C185.848 36.0844 190.087 36.0845 191.555 39.0573L199.515 55.1872C200.098 56.3676 201.224 57.1854 202.527 57.3747L220.327 59.9616C223.202 60.3793 224.563 63.5266 223.259 65.8561C224.06 67.3323 223.939 69.2844 222.544 70.6442L209.664 83.1989C209.286 83.5677 208.991 84.0029 208.787 84.4743L211.554 100.608C211.696 101.437 211.581 102.216 211.283 102.891L211.554 104.468C212.114 107.736 208.684 110.228 205.75 108.685L189.829 100.315C188.664 99.7025 187.272 99.7025 186.106 100.315L170.185 108.685C167.251 110.227 163.822 107.736 164.382 104.468L164.652 102.889C164.355 102.214 164.24 101.436 164.382 100.608L167.148 84.4743C166.944 84.003 166.651 83.5676 166.272 83.1989L153.391 70.6442C151.997 69.2845 151.875 67.3322 152.677 65.8561C151.372 63.5266 152.734 60.3793 155.609 59.9616L173.409 57.3747C174.712 57.1853 175.838 56.3676 176.421 55.1872L184.381 39.0573Z" fill="url(#paint4_linear_57_3379)"/>
<path d="M184.381 39.0573L182.587 38.1722L182.587 38.1722L184.381 39.0573ZM191.555 39.0573L193.348 38.1721L193.348 38.1721L191.555 39.0573ZM199.515 55.1872L197.722 56.0723L197.722 56.0724L199.515 55.1872ZM202.527 57.3747L202.815 55.3955L202.815 55.3955L202.527 57.3747ZM220.327 59.9616L220.039 61.9408L220.039 61.9408L220.327 59.9616ZM223.259 65.8561L221.514 64.879L220.975 65.8413L221.501 66.8105L223.259 65.8561ZM222.544 70.6442L223.94 72.0764V72.0764L222.544 70.6442ZM209.664 83.1989L208.268 81.7667L208.268 81.7667L209.664 83.1989ZM208.787 84.4743L206.952 83.6794L206.715 84.2256L206.816 84.8123L208.787 84.4743ZM211.554 100.608L209.582 100.946L209.582 100.946L211.554 100.608ZM211.283 102.891L209.453 102.084L209.21 102.636L209.312 103.229L211.283 102.891ZM211.554 104.468L213.525 104.13L213.525 104.13L211.554 104.468ZM205.75 108.685L204.819 110.455H204.819L205.75 108.685ZM189.829 100.315L190.76 98.5448L190.76 98.5448L189.829 100.315ZM186.106 100.315L185.176 98.5448H185.176L186.106 100.315ZM170.185 108.685L171.116 110.456L171.116 110.455L170.185 108.685ZM164.382 104.468L166.353 104.806L166.353 104.806L164.382 104.468ZM164.652 102.889L166.623 103.227L166.725 102.634L166.483 102.083L164.652 102.889ZM164.382 100.608L166.353 100.946L166.353 100.946L164.382 100.608ZM167.148 84.4743L169.119 84.8123L169.22 84.2255L168.983 83.6793L167.148 84.4743ZM166.272 83.1989L167.668 81.7667L167.668 81.7667L166.272 83.1989ZM153.391 70.6442L151.995 72.0763L151.995 72.0764L153.391 70.6442ZM152.677 65.8561L154.434 66.8103L154.96 65.8413L154.422 64.8791L152.677 65.8561ZM155.609 59.9616L155.897 61.9408L155.897 61.9408L155.609 59.9616ZM173.409 57.3747L173.697 59.3539L173.697 59.3539L173.409 57.3747ZM176.421 55.1872L178.214 56.0724L178.214 56.0723L176.421 55.1872ZM184.381 39.0573L186.174 39.9424C186.908 38.4561 189.027 38.4559 189.761 39.9425L191.555 39.0573L193.348 38.1721C191.147 33.713 184.788 33.7126 182.587 38.1722L184.381 39.0573ZM191.555 39.0573L189.761 39.9425L197.722 56.0723L199.515 55.1872L201.309 54.302L193.348 38.1721L191.555 39.0573ZM199.515 55.1872L197.722 56.0724C198.596 57.8435 200.286 59.07 202.24 59.3539L202.527 57.3747L202.815 55.3955C202.163 55.3007 201.6 54.8917 201.309 54.3019L199.515 55.1872ZM202.527 57.3747L202.24 59.3539L220.039 61.9408L220.327 59.9616L220.615 57.9824L202.815 55.3955L202.527 57.3747ZM220.327 59.9616L220.039 61.9408C221.458 62.1469 222.167 63.7124 221.514 64.879L223.259 65.8561L225.004 66.8333C226.959 63.3407 224.946 58.6118 220.615 57.9824L220.327 59.9616ZM223.259 65.8561L221.501 66.8105C221.919 67.5805 221.838 68.5388 221.148 69.212L222.544 70.6442L223.94 72.0764C226.039 70.0299 226.201 67.0842 225.016 64.9018L223.259 65.8561ZM222.544 70.6442L221.148 69.212L208.268 81.7667L209.664 83.1989L211.06 84.6311L223.94 72.0764L222.544 70.6442ZM209.664 83.1989L208.268 81.7667C207.697 82.323 207.256 82.9766 206.952 83.6794L208.787 84.4743L210.622 85.2692C210.726 85.0292 210.874 84.8124 211.06 84.6311L209.664 83.1989ZM208.787 84.4743L206.816 84.8123L209.582 100.946L211.554 100.608L213.525 100.27L210.758 84.1363L208.787 84.4743ZM211.554 100.608L209.582 100.946C209.657 101.381 209.595 101.762 209.453 102.084L211.283 102.891L213.113 103.698C213.567 102.669 213.734 101.493 213.525 100.27L211.554 100.608ZM211.283 102.891L209.312 103.229L209.582 104.807L211.554 104.468L213.525 104.13L213.254 102.553L211.283 102.891ZM211.554 104.468L209.582 104.806C209.862 106.441 208.147 107.686 206.681 106.915L205.75 108.685L204.819 110.455C209.221 112.77 214.365 109.031 213.525 104.13L211.554 104.468ZM205.75 108.685L206.681 106.915L190.76 98.5448L189.829 100.315L188.898 102.085L204.819 110.455L205.75 108.685ZM189.829 100.315L190.76 98.5448C189.012 97.626 186.924 97.6259 185.176 98.5448L186.106 100.315L187.037 102.085C187.62 101.779 188.316 101.779 188.898 102.085L189.829 100.315ZM186.106 100.315L185.176 98.5448L169.255 106.915L170.185 108.685L171.116 110.455L187.037 102.085L186.106 100.315ZM170.185 108.685L169.255 106.915C167.788 107.686 166.073 106.44 166.353 104.806L164.382 104.468L162.41 104.131C161.57 109.031 166.714 112.769 171.116 110.456L170.185 108.685ZM164.382 104.468L166.353 104.806L166.623 103.227L164.652 102.889L162.681 102.552L162.41 104.131L164.382 104.468ZM164.652 102.889L166.483 102.083C166.34 101.76 166.279 101.379 166.353 100.946L164.382 100.608L162.41 100.27C162.201 101.493 162.369 102.668 162.822 103.695L164.652 102.889ZM164.382 100.608L166.353 100.946L169.119 84.8123L167.148 84.4743L165.177 84.1363L162.41 100.27L164.382 100.608ZM167.148 84.4743L168.983 83.6793C168.68 82.9787 168.24 82.3245 167.668 81.7667L166.272 83.1989L164.876 84.6311C165.061 84.8108 165.208 85.0273 165.313 85.2693L167.148 84.4743ZM166.272 83.1989L167.668 81.7667L154.787 69.212L153.391 70.6442L151.995 72.0764L164.876 84.6311L166.272 83.1989ZM153.391 70.6442L154.788 69.2121C154.097 68.539 154.016 67.5803 154.434 66.8103L152.677 65.8561L150.919 64.9019C149.734 67.0842 149.896 70.0299 151.995 72.0763L153.391 70.6442ZM152.677 65.8561L154.422 64.8791C153.769 63.713 154.478 62.147 155.897 61.9408L155.609 59.9616L155.322 57.9824C150.991 58.6117 148.976 63.3401 150.931 66.8331L152.677 65.8561ZM155.609 59.9616L155.897 61.9408L173.697 59.3539L173.409 57.3747L173.121 55.3955L155.322 57.9824L155.609 59.9616ZM173.409 57.3747L173.697 59.3539C175.65 59.0699 177.34 57.8436 178.214 56.0724L176.421 55.1872L174.627 54.302C174.336 54.8916 173.773 55.3007 173.121 55.3955L173.409 57.3747ZM176.421 55.1872L178.214 56.0723L186.174 39.9424L184.381 39.0573L182.587 38.1722L174.627 54.3021L176.421 55.1872Z" fill="white" mask="url(#path-7-outside-3_57_3379)"/>
<g filter="url(#filter2_d_57_3379)">
<path d="M184.648 39.1063C186.115 36.1333 190.354 36.1333 191.821 39.1063L199.782 55.2359C200.365 56.4165 201.491 57.2348 202.794 57.4241L220.594 60.0106C223.875 60.4873 225.185 64.5192 222.811 66.8334L209.93 79.3885C208.988 80.3075 208.557 81.6315 208.78 82.9291L211.821 100.657C212.381 103.925 208.951 106.417 206.017 104.874L190.096 96.5038C188.931 95.8912 187.538 95.8912 186.373 96.5038L170.452 104.874C167.518 106.417 164.088 103.925 164.648 100.657L167.689 82.9291C167.912 81.6315 167.481 80.3075 166.539 79.3885L153.658 66.8334C151.284 64.5192 152.594 60.4874 155.875 60.0106L173.675 57.4241C174.978 57.2348 176.104 56.4165 176.687 55.2359L184.648 39.1063Z" fill="url(#paint5_linear_57_3379)"/>
</g>
<defs>
<filter id="filter0_d_57_3379" x="72.4282" y="5.5498" width="87.7288" height="86.8271" filterUnits="userSpaceOnUse" color-interpolation-filters="sRGB">
<feFlood flood-opacity="0" result="BackgroundImageFix"/>
<feColorMatrix in="SourceAlpha" type="matrix" values="0 0 0 0 0 0 0 0 0 0 0 0 0 0 0 0 0 0 127 0" result="hardAlpha"/>
<feOffset dy="3"/>
<feComposite in2="hardAlpha" operator="out"/>
<feColorMatrix type="matrix" values="0 0 0 0 1 0 0 0 0 0.392 0 0 0 0 0.2 0 0 0 1 0"/>
<feBlend mode="normal" in2="BackgroundImageFix" result="effect1_dropShadow_57_3379"/>
<feBlend mode="normal" in="SourceGraphic" in2="effect1_dropShadow_57_3379" result="shape"/>
</filter>
<filter id="filter1_d_57_3379" x="6.86905" y="36.8765" width="71.5768" height="71.4658" filterUnits="userSpaceOnUse" color-interpolation-filters="sRGB">
<feFlood flood-opacity="0" result="BackgroundImageFix"/>
<feColorMatrix in="SourceAlpha" type="matrix" values="0 0 0 0 0 0 0 0 0 0 0 0 0 0 0 0 0 0 127 0" result="hardAlpha"/>
<feOffset dy="3"/>
<feComposite in2="hardAlpha" operator="out"/>
<feColorMatrix type="matrix" values="0 0 0 0 1 0 0 0 0 0.392 0 0 0 0 0.2 0 0 0 1 0"/>
<feBlend mode="normal" in2="BackgroundImageFix" result="effect1_dropShadow_57_3379"/>
<feBlend mode="normal" in="SourceGraphic" in2="effect1_dropShadow_57_3379" result="shape"/>
</filter>
<filter id="filter2_d_57_3379" x="152.446" y="36.8765" width="71.5768" height="71.4658" filterUnits="userSpaceOnUse" color-interpolation-filters="sRGB">
<feFlood flood-opacity="0" result="BackgroundImageFix"/>
<feColorMatrix in="SourceAlpha" type="matrix" values="0 0 0 0 0 0 0 0 0 0 0 0 0 0 0 0 0 0 127 0" result="hardAlpha"/>
<feOffset dy="3"/>
<feComposite in2="hardAlpha" operator="out"/>
<feColorMatrix type="matrix" values="0 0 0 0 1 0 0 0 0 0.392 0 0 0 0 0.2 0 0 0 1 0"/>
<feBlend mode="normal" in2="BackgroundImageFix" result="effect1_dropShadow_57_3379"/>
<feBlend mode="normal" in="SourceGraphic" in2="effect1_dropShadow_57_3379" result="shape"/>
</filter>
<linearGradient id="paint0_linear_57_3379" x1="115.973" y1="-2.7084" x2="115.973" y2="104.699" gradientUnits="userSpaceOnUse">
<stop offset="0.25" stop-color="#FFEE37"/>
<stop offset="1" stop-color="#F78A3B"/>
</linearGradient>
<linearGradient id="paint1_linear_57_3379" x1="116.293" y1="0.511719" x2="116.293" y2="102.411" gradientUnits="userSpaceOnUse">
<stop offset="0.25" stop-color="#FFEE37"/>
<stop offset="1" stop-color="#F78A3B"/>
</linearGradient>
<linearGradient id="paint2_linear_57_3379" x1="42.3909" y1="30.1234" x2="42.3909" y2="117.942" gradientUnits="userSpaceOnUse">
<stop offset="0.25" stop-color="#FFEE37"/>
<stop offset="1" stop-color="#F78A3B"/>
</linearGradient>
<linearGradient id="paint3_linear_57_3379" x1="42.6574" y1="31.8384" x2="42.6574" y2="116.754" gradientUnits="userSpaceOnUse">
<stop offset="0.25" stop-color="#FFEE37"/>
<stop offset="1" stop-color="#F78A3B"/>
</linearGradient>
<linearGradient id="paint4_linear_57_3379" x1="187.968" y1="30.1238" x2="187.968" y2="117.943" gradientUnits="userSpaceOnUse">
<stop offset="0.25" stop-color="#FFEE37"/>
<stop offset="1" stop-color="#F78A3B"/>
</linearGradient>
<linearGradient id="paint5_linear_57_3379" x1="188.235" y1="31.8384" x2="188.235" y2="116.754" gradientUnits="userSpaceOnUse">
<stop offset="0.25" stop-color="#FFEE37"/>
<stop offset="1" stop-color="#F78A3B"/>
</linearGradient>
</defs>
</svg>
