<svg width="47" height="48" viewBox="0 0 47 48" fill="none" xmlns="http://www.w3.org/2000/svg">
<path d="M23.1104 1.82568C35.0192 1.82568 44.6104 11.7106 44.6104 23.8257C44.6104 35.9408 35.0192 45.8257 23.1104 45.8257C11.2016 45.8257 1.61041 35.9408 1.61041 23.8257C1.61041 11.7106 11.2016 1.82568 23.1104 1.82568Z" fill="#4E0202" stroke="white" stroke-width="3"/>
<path d="M17.2131 12.4059L23.1107 18.2991L29.0083 12.4059C32.3072 9.10255 37.3341 14.125 34.0307 17.4283L28.1376 23.326L34.0307 29.2236C37.3341 32.5225 32.3072 37.5494 29.0083 34.246L23.1107 28.3528L17.2131 34.246C13.9097 37.5494 8.88728 32.5225 12.1907 29.2236L18.0838 23.326L12.1907 17.4283C8.88728 14.125 13.9097 9.10255 17.2131 12.4059Z" fill="white"/>
</svg>
