<svg width="42" height="42" viewBox="0 0 42 42" fill="none" xmlns="http://www.w3.org/2000/svg">
<g filter="url(#filter0_i_57_324)">
<circle cx="21" cy="21" r="21" fill="url(#paint0_linear_57_324)"/>
</g>
<g filter="url(#filter1_i_57_324)">
<circle cx="21" cy="21" r="16" fill="url(#paint1_linear_57_324)"/>
</g>
<g filter="url(#filter2_dd_57_324)">
<path d="M19.5227 32.4774C19.3567 32.4774 19.2074 32.4108 19.0746 32.2776C18.9418 32.161 18.8754 32.0112 18.8754 31.828V30.1048C17.5808 29.9216 16.502 29.5803 15.639 29.0808C14.7759 28.5813 14.1203 27.9819 13.6722 27.2826C13.2407 26.5667 13.0166 25.8257 13 25.0598C13 24.91 13.0498 24.7851 13.1494 24.6852C13.249 24.5853 13.3734 24.5354 13.5228 24.5354H17.4813C17.7136 24.5354 17.8962 24.577 18.029 24.6602C18.1617 24.7268 18.3028 24.8267 18.4522 24.9599C18.585 25.1431 18.7509 25.3179 18.9501 25.4844C19.1659 25.6343 19.4314 25.7591 19.7468 25.859C20.0621 25.9423 20.4273 25.9839 20.8422 25.9839C21.6057 25.9839 22.1949 25.884 22.6098 25.6842C23.0247 25.4678 23.2322 25.1764 23.2322 24.8101C23.2322 24.527 23.116 24.2939 22.8836 24.1108C22.6679 23.9277 22.2944 23.7612 21.7633 23.6113C21.2322 23.4615 20.5102 23.3033 19.5974 23.1368C18.3194 22.9203 17.2157 22.604 16.2863 22.1877C15.3568 21.7548 14.6431 21.1804 14.1452 20.4645C13.6639 19.7319 13.4232 18.8328 13.4232 17.7672C13.4232 16.3686 13.9128 15.1948 14.8921 14.2457C15.8713 13.28 17.1991 12.664 18.8754 12.3976V10.6493C18.8754 10.4662 18.9418 10.3163 19.0746 10.1998C19.2074 10.0666 19.3567 10 19.5227 10H22.0621C22.2447 10 22.394 10.0666 22.5102 10.1998C22.643 10.3163 22.7094 10.4662 22.7094 10.6493V12.4725C23.8878 12.689 24.867 13.0636 25.6471 13.5964C26.4438 14.1292 27.0496 14.7286 27.4645 15.3946C27.896 16.0439 28.1201 16.6683 28.1367 17.2677C28.1367 17.4175 28.0786 17.5507 27.9624 17.6673C27.8628 17.7672 27.7466 17.8171 27.6139 17.8171H23.4563C23.2571 17.8171 23.0828 17.7838 22.9334 17.7172C22.8007 17.6506 22.6762 17.5424 22.56 17.3926C22.477 17.1595 22.2695 16.9513 21.9376 16.7682C21.6057 16.585 21.1824 16.4935 20.6679 16.4935C20.1036 16.4935 19.6721 16.5934 19.3733 16.7932C19.0746 16.9763 18.9252 17.251 18.9252 17.6173C18.9252 17.8671 19.0165 18.0835 19.1991 18.2667C19.3816 18.4498 19.7053 18.6163 20.17 18.7662C20.6347 18.8994 21.282 19.0492 22.1119 19.2157C23.6886 19.4488 24.9583 19.7818 25.9209 20.2147C26.9002 20.6476 27.6139 21.2137 28.062 21.913C28.5101 22.6123 28.7342 23.4864 28.7342 24.5354C28.7342 25.5344 28.4769 26.4251 27.9624 27.2077C27.4645 27.9736 26.7591 28.5979 25.8463 29.0808C24.95 29.5636 23.9044 29.8966 22.7094 30.0798V31.828C22.7094 32.0112 22.643 32.161 22.5102 32.2776C22.394 32.4108 22.2447 32.4774 22.0621 32.4774H19.5227Z" fill="url(#paint2_linear_57_324)"/>
</g>
<defs>
<filter id="filter0_i_57_324" x="0" y="-0.781006" width="42" height="42.781" filterUnits="userSpaceOnUse" color-interpolation-filters="sRGB">
<feFlood flood-opacity="0" result="BackgroundImageFix"/>
<feBlend mode="normal" in="SourceGraphic" in2="BackgroundImageFix" result="shape"/>
<feColorMatrix in="SourceAlpha" type="matrix" values="0 0 0 0 0 0 0 0 0 0 0 0 0 0 0 0 0 0 127 0" result="hardAlpha"/>
<feOffset dy="-0.781006"/>
<feGaussianBlur stdDeviation="0.781006"/>
<feComposite in2="hardAlpha" operator="arithmetic" k2="-1" k3="1"/>
<feColorMatrix type="matrix" values="0 0 0 0 0 0 0 0 0 0 0 0 0 0 0 0 0 0 0.3 0"/>
<feBlend mode="color-burn" in2="shape" result="effect1_innerShadow_57_324"/>
</filter>
<filter id="filter1_i_57_324" x="5" y="5" width="32" height="32.781" filterUnits="userSpaceOnUse" color-interpolation-filters="sRGB">
<feFlood flood-opacity="0" result="BackgroundImageFix"/>
<feBlend mode="normal" in="SourceGraphic" in2="BackgroundImageFix" result="shape"/>
<feColorMatrix in="SourceAlpha" type="matrix" values="0 0 0 0 0 0 0 0 0 0 0 0 0 0 0 0 0 0 127 0" result="hardAlpha"/>
<feOffset dy="0.781006"/>
<feGaussianBlur stdDeviation="0.781006"/>
<feComposite in2="hardAlpha" operator="arithmetic" k2="-1" k3="1"/>
<feColorMatrix type="matrix" values="0 0 0 0 0 0 0 0 0 0 0 0 0 0 0 0 0 0 0.25 0"/>
<feBlend mode="multiply" in2="shape" result="effect1_innerShadow_57_324"/>
</filter>
<filter id="filter2_dd_57_324" x="11.6123" y="10" width="18.5095" height="25.2529" filterUnits="userSpaceOnUse" color-interpolation-filters="sRGB">
<feFlood flood-opacity="0" result="BackgroundImageFix"/>
<feColorMatrix in="SourceAlpha" type="matrix" values="0 0 0 0 0 0 0 0 0 0 0 0 0 0 0 0 0 0 127 0" result="hardAlpha"/>
<feOffset dy="1.38768"/>
<feGaussianBlur stdDeviation="0.69384"/>
<feComposite in2="hardAlpha" operator="out"/>
<feColorMatrix type="matrix" values="0 0 0 0 0 0 0 0 0 0 0 0 0 0 0 0 0 0 0.25 0"/>
<feBlend mode="normal" in2="BackgroundImageFix" result="effect1_dropShadow_57_324"/>
<feColorMatrix in="SourceAlpha" type="matrix" values="0 0 0 0 0 0 0 0 0 0 0 0 0 0 0 0 0 0 127 0" result="hardAlpha"/>
<feOffset dy="0.69384"/>
<feGaussianBlur stdDeviation="0.17346"/>
<feComposite in2="hardAlpha" operator="out"/>
<feColorMatrix type="matrix" values="0 0 0 0 0 0 0 0 0 0 0 0 0 0 0 0 0 0 0.15 0"/>
<feBlend mode="multiply" in2="effect1_dropShadow_57_324" result="effect2_dropShadow_57_324"/>
<feBlend mode="normal" in="SourceGraphic" in2="effect2_dropShadow_57_324" result="shape"/>
</filter>
<linearGradient id="paint0_linear_57_324" x1="21" y1="0" x2="21" y2="42" gradientUnits="userSpaceOnUse">
<stop stop-color="#FCF4A6"/>
<stop offset="1" stop-color="#FFBD14"/>
</linearGradient>
<linearGradient id="paint1_linear_57_324" x1="21" y1="5" x2="21" y2="37" gradientUnits="userSpaceOnUse">
<stop stop-color="#FFCF00"/>
<stop offset="1" stop-color="#FF7A00"/>
</linearGradient>
<linearGradient id="paint2_linear_57_324" x1="20.8603" y1="7.07794" x2="20.8603" y2="32.4774" gradientUnits="userSpaceOnUse">
<stop stop-color="white"/>
<stop offset="1" stop-color="#FFD824"/>
</linearGradient>
</defs>
</svg>
