<svg width="101" height="48" viewBox="0 0 101 48" fill="none" xmlns="http://www.w3.org/2000/svg">
<g filter="url(#filter0_i_60_6687)">
<path d="M14.1433 37.7887C11.61 37.7887 9.3433 37.442 7.3433 36.7487C5.36997 36.0287 3.80997 34.9087 2.6633 33.3887C1.51663 31.8687 0.943301 29.922 0.943301 27.5487C0.943301 26.2687 1.12997 24.9887 1.5033 23.7087C1.87663 22.402 2.3433 21.162 2.9033 19.9887C3.03663 19.6953 3.19663 19.4687 3.3833 19.3087C3.56997 19.122 3.91663 19.122 4.4233 19.3087L8.3433 20.7087C8.84997 20.8953 9.1433 21.1087 9.2233 21.3487C9.32997 21.562 9.31664 21.8687 9.1833 22.2687C8.96997 22.9353 8.79664 23.5353 8.6633 24.0687C8.52997 24.5753 8.4633 25.0553 8.4633 25.5087C8.4633 26.682 8.9833 27.4953 10.0233 27.9487C11.0633 28.3753 12.7833 28.5887 15.1833 28.5887H22.5033C23.7833 28.5887 24.7966 28.522 25.5433 28.3887C26.29 28.2287 26.81 27.9753 27.1033 27.6287C27.4233 27.2553 27.5833 26.762 27.5833 26.1487C27.5833 25.5353 27.4633 24.7753 27.2233 23.8687L26.5833 21.2687C26.4766 20.7887 26.49 20.4287 26.6233 20.1887C26.7833 19.922 27.0366 19.7487 27.3833 19.6687L32.4633 18.5887C32.8366 18.5087 33.1166 18.5753 33.3033 18.7887C33.5166 18.9753 33.6633 19.242 33.7433 19.5887L34.8233 24.2687C34.93 24.6687 34.9966 25.082 35.0233 25.5087C35.0766 25.9353 35.1033 26.3753 35.1033 26.8287C35.1033 29.4153 34.5433 31.522 33.4233 33.1487C32.33 34.7487 30.77 35.922 28.7433 36.6687C26.7166 37.4153 24.3166 37.7887 21.5433 37.7887H14.1433ZM18.8233 46.9487C18.61 47.1353 18.3433 47.2153 18.0233 47.1887C17.73 47.1887 17.4766 47.0953 17.2633 46.9087L14.8233 44.4687C14.6366 44.2553 14.5433 44.002 14.5433 43.7087C14.5433 43.4153 14.6366 43.1487 14.8233 42.9087L17.2633 40.4687C17.4766 40.2553 17.73 40.1487 18.0233 40.1487C18.3166 40.1487 18.57 40.2553 18.7833 40.4687L21.1833 42.9087C21.4233 43.1487 21.5433 43.4153 21.5433 43.7087C21.57 44.002 21.4766 44.2687 21.2633 44.5087L18.8233 46.9487ZM49.3058 37.7887H45.9058C44.3858 37.7887 43.1191 37.4953 42.1058 36.9087C41.0925 36.322 40.3325 35.4553 39.8258 34.3087C39.3458 33.1353 39.1058 31.722 39.1058 30.0687V8.30867C39.1058 8.01534 39.2125 7.78867 39.4258 7.62867C39.6391 7.46867 39.8791 7.38867 40.1458 7.38867H45.5058C45.7725 7.38867 45.9725 7.482 46.1058 7.66867C46.2391 7.82867 46.3058 8.042 46.3058 8.30867V26.5087C46.3058 26.9887 46.3725 27.3887 46.5058 27.7087C46.6391 28.002 46.8391 28.2287 47.1058 28.3887C47.3991 28.522 47.7725 28.5887 48.2258 28.5887H49.9058C50.3058 28.5887 50.5058 28.7887 50.5058 29.1887V36.5887C50.5058 37.3887 50.1058 37.7887 49.3058 37.7887ZM49.3089 37.7887C49.1223 37.7887 48.9756 37.7353 48.8689 37.6287C48.7623 37.522 48.7089 37.3753 48.7089 37.1887V29.7887C48.7089 29.4153 48.8156 29.122 49.0289 28.9087C49.2423 28.6953 49.5356 28.5887 49.9089 28.5887C50.5489 28.5887 51.1756 28.5887 51.7889 28.5887C52.4023 28.5887 53.0156 28.5887 53.6289 28.5887C54.2689 28.5887 54.8956 28.5887 55.5089 28.5887L52.9889 26.2287C52.5889 25.8553 52.3089 25.5087 52.1489 25.1887C51.9889 24.8687 51.9089 24.4287 51.9089 23.8687L51.9489 20.4687C51.9489 19.8553 52.0689 19.3887 52.3089 19.0687C52.5489 18.722 52.9089 18.4553 53.3889 18.2687C54.9623 17.6553 56.5623 17.2153 58.1889 16.9487C59.8156 16.6553 61.4023 16.5087 62.9489 16.5087C66.9223 16.5087 69.7623 17.0287 71.4689 18.0687C73.1756 19.082 74.0289 20.5753 74.0289 22.5487C74.0289 23.322 73.9223 24.002 73.7089 24.5887C73.5223 25.1487 73.1623 25.7353 72.6289 26.3487C72.1223 26.9353 71.4023 27.682 70.4689 28.5887C71.1089 28.5887 71.7489 28.5887 72.3889 28.5887C73.0556 28.5887 73.7089 28.5887 74.3489 28.5887H76.4689C76.9489 28.5887 77.1889 28.8153 77.1889 29.2687V36.4687C77.1889 37.3487 76.7223 37.7887 75.7889 37.7887H72.1089C71.1756 37.7887 70.2689 37.7353 69.3889 37.6287C68.5089 37.5487 67.6556 37.402 66.8289 37.1887C66.0289 36.9753 65.2556 36.7087 64.5089 36.3887C63.7623 36.042 63.0423 35.6287 62.3489 35.1487C61.4423 35.762 60.5756 36.2553 59.7489 36.6287C58.9223 36.9753 58.0289 37.2287 57.0689 37.3887C56.1356 37.5753 55.0423 37.682 53.7889 37.7087C52.5356 37.762 51.0423 37.7887 49.3089 37.7887ZM63.1889 27.6287C64.2023 26.9887 64.9489 26.442 65.4289 25.9887C65.9356 25.5353 66.2023 25.1353 66.2289 24.7887C66.2556 24.5487 66.2023 24.322 66.0689 24.1087C65.9356 23.8687 65.6423 23.682 65.1889 23.5487C64.7356 23.3887 64.0289 23.3087 63.0689 23.3087C62.4023 23.3087 61.7356 23.362 61.0689 23.4687C60.4023 23.5487 59.6823 23.682 58.9089 23.8687L63.1889 27.6287ZM75.9886 37.7887C75.5886 37.7887 75.3886 37.5887 75.3886 37.1887V29.7887C75.3886 28.9887 75.7886 28.5887 76.5886 28.5887C77.3086 28.5887 77.8686 28.482 78.2686 28.2687C78.6953 28.0553 78.9886 27.6953 79.1486 27.1887C79.3086 26.682 79.3886 25.9887 79.3886 25.1087V8.30867C79.3886 8.042 79.4686 7.82867 79.6286 7.66867C79.8153 7.482 80.0419 7.38867 80.3086 7.38867H85.6686C85.9619 7.38867 86.1886 7.482 86.3486 7.66867C86.5086 7.82867 86.5886 8.042 86.5886 8.30867V25.2287C86.5886 27.1753 86.4553 28.9353 86.1886 30.5087C85.9486 32.082 85.4553 33.4153 84.7086 34.5087C83.9886 35.602 82.9219 36.4287 81.5086 36.9887C80.1219 37.5487 78.2819 37.8153 75.9886 37.7887ZM93.3117 37.5887C93.0451 37.5887 92.8184 37.5087 92.6317 37.3487C92.4717 37.162 92.3917 36.9353 92.3917 36.6687V14.0287C92.3917 13.362 92.5117 12.9087 92.7517 12.6687C92.9917 12.402 93.4451 12.1887 94.1117 12.0287L98.3917 10.9487C98.8717 10.8153 99.1917 10.8687 99.3517 11.1087C99.5117 11.3487 99.5917 11.602 99.5917 11.8687V36.6687C99.5917 36.9353 99.5117 37.162 99.3517 37.3487C99.1917 37.5087 98.9651 37.5887 98.6717 37.5887H93.3117ZM92.3917 10.0287C92.1251 10.082 91.9251 10.042 91.7917 9.90867C91.6851 9.77534 91.6317 9.61534 91.6317 9.42867V7.74867C91.6317 7.482 91.6851 7.29534 91.7917 7.18867C91.9251 7.05534 92.0851 6.962 92.2717 6.90867L93.1917 6.62867C93.0051 6.38867 92.8451 6.09534 92.7117 5.74867C92.6051 5.402 92.5517 5.01534 92.5517 4.58867C92.5517 3.41534 92.8984 2.442 93.5917 1.66867C94.3117 0.895336 95.3517 0.50867 96.7117 0.50867C97.0851 0.50867 97.4451 0.54867 97.7917 0.628671C98.1384 0.70867 98.4184 0.815336 98.6317 0.948669C98.9784 1.13534 99.1517 1.37534 99.1517 1.66867V3.30867C99.1517 3.65534 98.9917 3.77534 98.6717 3.66867C98.3517 3.50867 98.0051 3.402 97.6317 3.34867C97.2851 3.26867 96.9384 3.22867 96.5917 3.22867C96.0584 3.22867 95.6717 3.33534 95.4317 3.54867C95.1917 3.73534 95.0717 3.97534 95.0717 4.26867C95.0717 4.74867 95.3784 5.10867 95.9917 5.34867C96.6051 5.562 97.3384 5.58867 98.1917 5.42867L99.5517 5.18867C99.8451 5.13534 100.045 5.14867 100.152 5.22867C100.285 5.30867 100.352 5.482 100.352 5.74867V7.42867C100.352 7.85534 100.165 8.122 99.7917 8.22867L92.3917 10.0287Z" fill="#D9D9D9"/>
</g>
<defs>
<filter id="filter0_i_60_6687" x="0.943298" y="-0.406305" width="99.4084" height="47.6348" filterUnits="userSpaceOnUse" color-interpolation-filters="sRGB">
<feFlood flood-opacity="0" result="BackgroundImageFix"/>
<feBlend mode="normal" in="SourceGraphic" in2="BackgroundImageFix" result="shape"/>
<feColorMatrix in="SourceAlpha" type="matrix" values="0 0 0 0 0 0 0 0 0 0 0 0 0 0 0 0 0 0 127 0" result="hardAlpha"/>
<feOffset dy="-4.57547"/>
<feGaussianBlur stdDeviation="0.457547"/>
<feComposite in2="hardAlpha" operator="arithmetic" k2="-1" k3="1"/>
<feColorMatrix type="matrix" values="0 0 0 0 0 0 0 0 0 0 0 0 0 0 0 0 0 0 1 0"/>
<feBlend mode="overlay" in2="shape" result="effect1_innerShadow_60_6687"/>
</filter>
</defs>
</svg>
